<svg width="72" height="81" viewBox="0 0 72 81" fill="none" xmlns="http://www.w3.org/2000/svg">
<path d="M13.1387 52.2816C13.1387 52.3687 13.1387 52.3687 13.1387 52.2816L35.4745 63.3339C35.5621 63.3339 35.5621 63.4209 35.6497 63.4209H35.7373C35.8249 63.4209 35.9124 63.4209 36 63.4209C36.0876 63.4209 36.1752 63.4209 36.2628 63.4209H36.3504C36.438 63.4209 36.5256 63.4209 36.5256 63.3339L58.7738 52.2816H58.8613L58.9489 52.1946L59.0365 52.1076L59.1241 52.0206L59.2117 51.9335L59.2993 51.8465C59.2993 51.8465 59.2993 51.7595 59.3869 51.7595C59.3869 51.7595 59.3869 51.6725 59.4745 51.6725V51.5854V51.4984C59.4745 51.4114 59.4745 51.4114 59.4745 51.3244V51.2373V29.1329C59.4745 29.0459 59.4745 28.8718 59.3869 28.7848V28.6978C59.3869 28.6108 59.2993 28.5237 59.2993 28.4367C59.2993 28.4367 59.2993 28.4367 59.2993 28.3497C59.2117 28.2627 59.2117 28.1756 59.1241 28.0886C59.1241 28.0886 59.1241 28.0886 59.0365 28.0016C58.9489 27.9146 58.8613 27.9146 58.7738 27.8275L36.6132 16.8623C36.2628 16.6883 35.8249 16.6883 35.4745 16.8623L13.1387 27.9146C13.0511 27.9146 12.9635 28.0016 12.8759 28.0886C12.8759 28.0886 12.8759 28.0886 12.7884 28.1756C12.7008 28.2627 12.6132 28.3497 12.6132 28.4367C12.6132 28.4367 12.6132 28.4367 12.6132 28.5237C12.6132 28.6108 12.5256 28.6978 12.5256 28.7848V28.8718C12.5256 28.9589 12.438 29.0459 12.438 29.2199V51.3244V51.4114C12.438 51.4984 12.438 51.4984 12.438 51.5854V51.6725V51.7595C12.438 51.7595 12.438 51.8465 12.5256 51.8465C12.5256 51.8465 12.5256 51.9335 12.6132 51.9335L12.7008 52.0206L12.7884 52.1076L12.8759 52.1946L12.9635 52.2816C13.0511 52.2816 13.0511 52.2816 13.1387 52.2816ZM47.1241 44.5364C47.8248 44.5364 48.438 43.9272 48.438 43.231V35.3987L56.9343 31.2215V50.3671L37.3139 60.1139V40.9683L45.8102 36.7911V43.318C45.8102 43.9272 46.4234 44.5364 47.1241 44.5364ZM34.6862 60.1139L15.0657 50.3671V31.2215L34.6862 40.9683V60.1139ZM36 19.5601L55.2701 29.1329L47.1241 33.2231L27.854 23.6503L36 19.5601ZM24.8759 25.0427L44.146 34.6155L36 38.7057L16.73 29.1329L24.8759 25.0427Z" fill="#96CC1C"/>
<path d="M72.0001 40.1851C72.0001 39.4889 71.387 38.8798 70.6863 38.8798C69.9855 38.8798 69.3724 39.4889 69.3724 40.1851C69.3724 57.6772 55.6206 72.1234 38.2775 73.2547L43.2702 70.818C43.8833 70.4699 44.1461 69.6867 43.8833 69.0775C43.533 68.4684 42.7447 68.2073 42.1315 68.4684L31.8833 73.5158C31.4454 73.7769 31.1826 74.212 31.1826 74.6472C31.1826 75.0823 31.4454 75.6044 31.8833 75.7785L42.1315 80.8259C42.3067 80.913 42.4819 81 42.7447 81C43.2702 81 43.7082 80.7389 43.8833 80.3038C44.2337 79.6946 43.9709 78.9114 43.2702 78.5633L38.0147 75.9525C56.9344 74.8212 72.0001 59.2437 72.0001 40.1851Z" fill="#96CC1C"/>
<path d="M28.7299 10.1614C28.1168 10.5095 27.854 11.2928 28.1168 11.9019C28.3796 12.3371 28.8175 12.5981 29.2555 12.5981C29.4307 12.5981 29.6058 12.5111 29.8686 12.4241L40.1168 7.37662C40.5548 7.11554 40.8175 6.68041 40.8175 6.24529C40.8175 5.81016 40.5548 5.28801 40.1168 5.11396L29.9562 0.153517C29.3431 -0.194584 28.5547 0.0664914 28.2044 0.762694C27.854 1.37187 28.1168 2.1551 28.8175 2.5032L33.0219 4.59181C14.5401 6.07124 0 21.4747 0 40.1852C0 40.8814 0.613139 41.4905 1.31387 41.4905C2.0146 41.4905 2.62774 40.8814 2.62774 40.1852C2.62774 22.1709 17.0803 7.55067 35.0365 7.02851L28.7299 10.1614Z" fill="#96CC1C"/>
</svg>
