<svg width="58" height="66" viewBox="0 0 58 66" fill="none" xmlns="http://www.w3.org/2000/svg">
<path d="M57.4625 16.9042C57.4625 16.9042 57.4466 16.8327 57.4386 16.793V16.7612C57.4227 16.7215 57.4068 16.6818 57.391 16.642C57.3751 16.5944 57.3512 16.5546 57.3274 16.5149C57.3274 16.507 57.3115 16.4911 57.3115 16.4831C57.3036 16.4672 57.2877 16.4434 57.2797 16.4275C57.2797 16.4196 57.2638 16.4116 57.2559 16.4037L57.232 16.3719C57.232 16.3719 57.1844 16.3163 57.1605 16.2924L57.1367 16.2686C57.1367 16.2686 57.0652 16.205 57.0334 16.1732C57.0334 16.1732 56.9619 16.1176 56.9222 16.0938H56.9142L29.3113 0.154939C28.9617 -0.0516463 28.5246 -0.0516463 28.1671 0.154939L0.572082 16.0858H0.556191C0.556191 16.0858 0.484681 16.1415 0.444953 16.1653C0.444953 16.1653 0.373443 16.2289 0.34166 16.2606L0.317823 16.2845C0.317823 16.2845 0.27015 16.3321 0.246313 16.3639L0.222476 16.3957C0.222476 16.3957 0.206585 16.4116 0.19864 16.4196C0.182748 16.4354 0.174803 16.4593 0.166857 16.4752C0.166857 16.4831 0.150967 16.499 0.150967 16.507C0.12713 16.5467 0.111238 16.5864 0.0874012 16.6261C0.07151 16.6738 0.0556194 16.7135 0.0476738 16.7533V16.785C0.0476738 16.785 0.0238371 16.8566 0.0158915 16.8963V16.9281C0.00794595 16.9757 0 17.0234 0 17.0631V48.9408C0 49.3461 0.214531 49.7274 0.572082 49.9261L28.175 65.857H28.183C28.2227 65.8808 28.2624 65.9047 28.3101 65.9205H28.3181C28.3181 65.9205 28.3975 65.9523 28.4373 65.9603H28.469C28.469 65.9603 28.5326 65.9841 28.5723 65.9921C28.5882 65.9921 28.5962 65.9921 28.6121 65.9921C28.6597 65.9921 28.6995 66 28.7471 66C28.7948 66 28.8345 66 28.8822 65.9921C28.8981 65.9921 28.906 65.9921 28.9219 65.9921C28.9537 65.9921 28.9934 65.9841 29.0252 65.9682H29.057C29.0967 65.9444 29.1365 65.9364 29.1762 65.9205H29.1841C29.2239 65.8967 29.2715 65.8808 29.3113 65.857H29.3192L56.9222 49.9181C57.2718 49.7116 57.4943 49.3381 57.4943 48.9329V17.0711C57.4943 17.0234 57.4943 16.9757 57.4863 16.9281V16.9042H57.4625ZM43.3511 10.8974L18.1716 27.456L13.1499 23.9917L37.8687 7.73503L43.3511 10.8974ZM17.0194 29.4265V35.1076L15.4303 33.0417C15.1046 32.6127 14.5166 32.4776 14.0319 32.708L12.2521 33.5661V26.145L17.0194 29.4344V29.4265ZM28.7392 2.45916L35.6677 6.45579L11.1318 22.5853L3.26564 17.1585L28.7392 2.45916ZM27.595 62.9092L2.27244 48.2893V19.2482L9.97171 24.5638V35.3777C9.97171 35.7671 10.1703 36.1325 10.5041 36.3471C10.8378 36.5616 11.2509 36.5775 11.6085 36.4106L14.1829 35.1711L17.2578 39.1598C17.4803 39.4459 17.814 39.6048 18.1636 39.6048C18.2828 39.6048 18.4099 39.5889 18.5291 39.5412C18.99 39.3823 19.2998 38.9532 19.2998 38.4606V31.0076L27.5871 36.7285V62.9012L27.595 62.9092ZM28.7392 34.75L20.2056 28.8623L45.5679 12.1846L54.2048 17.1744L28.7392 34.758V34.75ZM55.198 48.2893L29.8754 62.9092V36.7285L55.198 19.2482V48.2893Z" fill="#96CC1C"/>
<path d="M38.5914 49.1076C40.697 49.1076 43.2872 48.2733 45.8537 46.6445C50.5813 43.641 52.8935 39.3901 51.2249 36.7681C50.3588 35.4094 48.6346 34.7976 46.3622 35.0359C44.3678 35.2505 42.1113 36.1007 40.0057 37.4355C37.9001 38.7704 36.168 40.4548 35.1351 42.1711C33.9512 44.1257 33.7684 45.9532 34.6345 47.3119C35.3973 48.5117 36.8195 49.0996 38.5914 49.0996V49.1076ZM37.0817 43.355C37.9319 41.9566 39.4416 40.5025 41.2293 39.3663C43.0171 38.2301 44.9717 37.4832 46.6006 37.3084C46.8389 37.2845 47.0693 37.2687 47.2918 37.2687C48.2771 37.2687 49.0081 37.5229 49.3021 37.9917C50.1046 39.2551 48.2771 42.4015 44.63 44.7137C40.983 47.0338 37.3598 47.3516 36.5573 46.0883C36.1918 45.5162 36.3905 44.4991 37.0817 43.355Z" fill="#96CC1C"/>
</svg>
