<svg width="63" height="30" viewBox="0 0 63 30" fill="none" xmlns="http://www.w3.org/2000/svg">
<path d="M5.4811 26.5947V25.0728C5.4902 24.9448 5.47137 24.8163 5.42587 24.696C5.38037 24.5757 5.30923 24.4663 5.21722 24.3751C5.1252 24.2839 5.01441 24.213 4.89224 24.1671C4.77007 24.1212 4.63934 24.1013 4.50874 24.1089C4.33782 24.098 4.16704 24.1322 4.01421 24.2081C3.86138 24.2839 3.73208 24.3986 3.63981 24.5401C3.55571 24.4028 3.43542 24.2903 3.2916 24.2144C3.14778 24.1385 2.98576 24.1021 2.82259 24.1089C2.68037 24.1019 2.53874 24.1314 2.41173 24.1946C2.28473 24.2578 2.17675 24.3524 2.09848 24.4691V24.1698H1.56055V26.5947H2.10363V25.2503C2.09189 25.1674 2.09902 25.0829 2.12452 25.003C2.15002 24.923 2.19325 24.8496 2.25111 24.788C2.30896 24.7264 2.38001 24.6782 2.45914 24.6467C2.53827 24.6153 2.62354 24.6014 2.70879 24.6061C3.06567 24.6061 3.24672 24.8344 3.24672 25.2452V26.5947H3.78981V25.2503C3.77895 25.1675 3.7867 25.0834 3.81252 25.0038C3.83835 24.9243 3.88162 24.8513 3.93929 24.7899C3.99696 24.7285 4.06764 24.6802 4.14636 24.6484C4.22508 24.6167 4.30993 24.6022 4.39496 24.6061C4.76216 24.6061 4.93802 24.8344 4.93802 25.2452V26.5947H5.4811ZM13.5188 24.1698H12.6395V23.4342H12.0964V24.1698H11.5947V24.6517H12.0964V25.7576C12.0964 26.3207 12.3188 26.6556 12.955 26.6556C13.1926 26.6563 13.4257 26.5912 13.6274 26.4679L13.4722 26.0163C13.328 26.1008 13.1642 26.1479 12.9964 26.1533C12.7274 26.1533 12.6395 25.9909 12.6395 25.7475V24.6517H13.5188V24.1698ZM18.1065 24.1089C17.9754 24.1051 17.8456 24.1361 17.7309 24.1986C17.6162 24.2611 17.5208 24.3528 17.4548 24.464V24.1698H16.9221V26.5947H17.46V25.2351C17.46 24.8343 17.6358 24.6111 17.9876 24.6111C18.1026 24.6096 18.2169 24.6303 18.3238 24.672L18.4893 24.1749C18.3664 24.1317 18.237 24.1094 18.1065 24.1089ZM11.1706 24.3626C10.8661 24.185 10.516 24.0969 10.162 24.1089C9.53614 24.1089 9.13272 24.4031 9.13272 24.8851C9.13272 25.2808 9.4327 25.5243 9.9861 25.6004L10.2396 25.6359C10.5344 25.6764 10.674 25.7525 10.674 25.8895C10.674 26.0772 10.4775 26.1838 10.1103 26.1838C9.81487 26.1921 9.52521 26.1028 9.28786 25.9301L9.03444 26.341C9.34775 26.5556 9.72306 26.6659 10.1051 26.6556C10.8188 26.6556 11.2326 26.3258 11.2326 25.8642C11.2326 25.438 10.9068 25.2148 10.3689 25.1387L10.1155 25.1032C9.88267 25.0728 9.69649 25.0272 9.69649 24.8648C9.69649 24.6872 9.8723 24.5807 10.1672 24.5807C10.4379 24.5847 10.7031 24.6563 10.9378 24.7887L11.1706 24.3626ZM25.5804 24.1089C25.4492 24.1051 25.3195 24.1361 25.2048 24.1986C25.0901 24.2611 24.9947 24.3528 24.9287 24.464V24.1698H24.396V26.5947H24.9338V25.2351C24.9338 24.8343 25.1097 24.6111 25.4614 24.6111C25.5765 24.6096 25.6907 24.6303 25.7977 24.672L25.9632 24.1749C25.8403 24.1317 25.7109 24.1094 25.5804 24.1089ZM18.6496 25.3822C18.6424 25.553 18.6718 25.7234 18.7359 25.8824C18.7999 26.0415 18.8972 26.1856 19.0214 26.3055C19.1456 26.4255 19.2941 26.5186 19.4572 26.5789C19.6203 26.6392 19.7945 26.6653 19.9686 26.6556C20.2915 26.6715 20.6088 26.5683 20.8581 26.3664L20.5995 25.9402C20.4136 26.0793 20.1868 26.1558 19.953 26.1584C19.7514 26.1464 19.5621 26.0594 19.4237 25.9151C19.2853 25.7709 19.2082 25.5803 19.2082 25.3822C19.2082 25.1841 19.2853 24.9935 19.4237 24.8493C19.5621 24.7051 19.7514 24.6181 19.953 24.6061C20.1868 24.6087 20.4136 24.6852 20.5995 24.8242L20.8581 24.3981C20.6088 24.1961 20.2915 24.093 19.9686 24.1089C19.7945 24.0992 19.6203 24.1253 19.4572 24.1856C19.2941 24.2459 19.1457 24.339 19.0214 24.4589C18.8972 24.5788 18.7999 24.7229 18.7359 24.882C18.6718 25.041 18.6425 25.2114 18.6496 25.3822ZM23.6874 25.3822V24.1698H23.1494V24.464C23.0576 24.348 22.9388 24.2552 22.8029 24.1934C22.6671 24.1316 22.5181 24.1026 22.3684 24.1089C22.0351 24.1249 21.7209 24.2661 21.4908 24.5031C21.2606 24.7402 21.1323 25.0549 21.1323 25.3822C21.1323 25.7096 21.2606 26.0243 21.4908 26.2614C21.7209 26.4984 22.0351 26.6395 22.3684 26.6556C22.5181 26.6618 22.6671 26.6329 22.8029 26.5711C22.9388 26.5093 23.0576 26.4165 23.1494 26.3004V26.5947H23.6874V25.3822ZM21.6857 25.3822C21.694 25.2391 21.7449 25.1015 21.832 24.9864C21.9191 24.8714 22.0386 24.7838 22.1759 24.7346C22.3131 24.6853 22.462 24.6766 22.6043 24.7093C22.7466 24.7421 22.8759 24.815 22.9764 24.919C23.077 25.0231 23.1442 25.1537 23.17 25.2948C23.1957 25.4359 23.1788 25.5812 23.1213 25.713C23.0638 25.8448 22.9683 25.9572 22.8465 26.0363C22.7246 26.1154 22.5818 26.1579 22.4357 26.1584C22.3333 26.1597 22.2317 26.1403 22.1373 26.1012C22.0429 26.0622 21.9578 26.0043 21.8874 25.9314C21.8169 25.8585 21.7626 25.772 21.7279 25.6775C21.6932 25.583 21.6788 25.4824 21.6857 25.3822ZM15.1946 24.1089C14.8591 24.1262 14.5436 24.2703 14.3141 24.5109C14.0846 24.7515 13.959 25.0699 13.9637 25.3993C13.9684 25.7288 14.1029 26.0436 14.3392 26.2778C14.5754 26.5121 14.895 26.6474 15.2308 26.6556C15.5998 26.6683 15.9607 26.5473 16.2445 26.3156L15.9807 25.925C15.7765 26.0856 15.5235 26.1748 15.2618 26.1787C15.0841 26.1933 14.9075 26.1396 14.7694 26.0288C14.6314 25.918 14.5427 25.7589 14.5222 25.5851H16.3583C16.3635 25.5192 16.3687 25.4532 16.3687 25.3822C16.3635 24.6264 15.8876 24.1089 15.1946 24.1089ZM15.1842 24.5807C15.3467 24.5776 15.5038 24.6378 15.6211 24.7481C15.7384 24.8584 15.8064 25.0098 15.8101 25.1692H14.5273C14.5368 25.0064 14.6108 24.8537 14.7335 24.7437C14.8563 24.6337 15.0181 24.5752 15.1842 24.5807ZM28.6786 25.3822V23.1958H28.1406V24.464C28.0488 24.348 27.93 24.2552 27.7941 24.1934C27.6583 24.1316 27.5093 24.1026 27.3596 24.1089C27.0263 24.1249 26.7121 24.2661 26.4819 24.5031C26.2518 24.7402 26.1235 25.0549 26.1235 25.3822C26.1235 25.7096 26.2518 26.0243 26.4819 26.2614C26.7121 26.4984 27.0263 26.6396 27.3596 26.6556C27.5093 26.6618 27.6583 26.6329 27.7941 26.5711C27.93 26.5093 28.0488 26.4165 28.1406 26.3004V26.5947H28.6786V25.3822ZM29.5752 26.2433C29.6086 26.243 29.6418 26.2495 29.6725 26.2622C29.7022 26.2743 29.7291 26.2918 29.7521 26.3139C29.7748 26.3358 29.793 26.3619 29.8056 26.3907C29.8186 26.4202 29.8252 26.452 29.8252 26.4841C29.8252 26.5163 29.8186 26.5481 29.8056 26.5776C29.7929 26.6063 29.7747 26.6322 29.7521 26.6541C29.7291 26.6762 29.7021 26.6938 29.6725 26.7061C29.6418 26.719 29.6087 26.7255 29.5752 26.7253C29.526 26.7258 29.4778 26.7121 29.4365 26.6858C29.3952 26.6595 29.3627 26.6219 29.3431 26.5776C29.3302 26.5481 29.3235 26.5163 29.3235 26.4841C29.3235 26.452 29.3302 26.4202 29.3431 26.3907C29.3557 26.362 29.3738 26.3359 29.3964 26.3139C29.4193 26.2917 29.4464 26.2741 29.4762 26.2622C29.5076 26.2494 29.5413 26.243 29.5752 26.2433ZM29.5752 26.6721C29.6007 26.6723 29.626 26.6673 29.6494 26.6574C29.6718 26.6478 29.6922 26.6342 29.7096 26.6172C29.7453 26.5818 29.7653 26.534 29.7653 26.4843C29.7653 26.4345 29.7453 26.3867 29.7096 26.3513C29.6923 26.3344 29.6718 26.3209 29.6494 26.3115C29.6259 26.3017 29.6007 26.2968 29.5752 26.297C29.5493 26.2968 29.5236 26.3018 29.4997 26.3115C29.4768 26.3207 29.4561 26.3343 29.4385 26.3513C29.4028 26.3867 29.3828 26.4345 29.3828 26.4843C29.3828 26.5341 29.4028 26.5818 29.4385 26.6172C29.4561 26.6343 29.4769 26.648 29.4997 26.6574C29.5236 26.6673 29.5493 26.6723 29.5752 26.6721ZM29.5897 26.3714C29.6139 26.3699 29.6379 26.3767 29.6575 26.3907C29.6653 26.397 29.6715 26.405 29.6756 26.4141C29.6798 26.4231 29.6817 26.433 29.6813 26.4429C29.6815 26.4514 29.68 26.4599 29.6767 26.4678C29.6735 26.4757 29.6685 26.4828 29.6623 26.4887C29.6473 26.5017 29.6284 26.5095 29.6084 26.5109L29.6831 26.5953H29.6247L29.5554 26.5114H29.5331V26.5953H29.4843V26.3714H29.5897ZM29.5331 26.4134V26.4731H29.5891C29.5999 26.4736 29.6106 26.471 29.6199 26.4656C29.6236 26.4632 29.6267 26.4598 29.6287 26.4558C29.6307 26.4518 29.6316 26.4474 29.6313 26.4429C29.6315 26.4386 29.6306 26.4342 29.6286 26.4303C29.6266 26.4264 29.6236 26.4231 29.6199 26.4207C29.6106 26.4154 29.5999 26.4129 29.5891 26.4134H29.5331ZM26.6769 25.3822C26.6853 25.2391 26.7361 25.1015 26.8233 24.9865C26.9104 24.8714 27.0299 24.7839 27.1671 24.7346C27.3044 24.6854 27.4533 24.6766 27.5955 24.7094C27.7378 24.7422 27.8671 24.8151 27.9676 24.9191C28.0682 25.0232 28.1354 25.1538 28.1612 25.2948C28.1869 25.4359 28.17 25.5813 28.1125 25.7131C28.055 25.8448 27.9594 25.9572 27.8376 26.0363C27.7158 26.1155 27.573 26.1579 27.4269 26.1584C27.3244 26.1597 27.2229 26.1403 27.1285 26.1012C27.0341 26.0621 26.949 26.0043 26.8786 25.9314C26.8081 25.8585 26.7538 25.772 26.7191 25.6775C26.6844 25.583 26.67 25.4824 26.6769 25.3822ZM8.51204 25.3822V24.1698H7.97411V24.464C7.88229 24.348 7.76348 24.2552 7.6276 24.1934C7.49172 24.1316 7.34273 24.1026 7.1931 24.1089C6.85979 24.1249 6.54554 24.2661 6.31542 24.5031C6.08531 24.7402 5.95696 25.0549 5.95696 25.3822C5.95696 25.7096 6.08531 26.0243 6.31542 26.2614C6.54554 26.4984 6.85979 26.6395 7.1931 26.6556C7.34274 26.6618 7.49172 26.6329 7.6276 26.5711C7.76348 26.5093 7.8823 26.4165 7.97411 26.3004V26.5947H8.51204V25.3822ZM6.5104 25.3822C6.51876 25.2391 6.56963 25.1015 6.65674 24.9865C6.74385 24.8714 6.86339 24.7839 7.00062 24.7346C7.13785 24.6854 7.28677 24.6766 7.42902 24.7094C7.57126 24.7422 7.70062 24.8151 7.80113 24.9191C7.90164 25.0232 7.96891 25.1538 7.99465 25.2948C8.02039 25.4359 8.00346 25.5813 7.94596 25.7131C7.88847 25.8448 7.79291 25.9572 7.67108 26.0363C7.54925 26.1155 7.40647 26.1579 7.26035 26.1584C7.15793 26.1597 7.05633 26.1403 6.96196 26.1012C6.86759 26.0621 6.7825 26.0043 6.71205 25.9314C6.64159 25.8585 6.5873 25.772 6.55259 25.6775C6.51789 25.583 6.50352 25.4824 6.5104 25.3822Z" fill="#231F20"/>
<path d="M19.1392 5.68994H10.9918V20.0501H19.1392V5.68994Z" fill="#FF5F00"/>
<path d="M11.509 12.8704C11.5077 11.4875 11.8273 10.1223 12.4434 8.87835C13.0596 7.63438 13.9562 6.54421 15.0654 5.69036C13.6918 4.63138 12.0421 3.97283 10.305 3.78995C8.5678 3.60708 6.81323 3.90727 5.24178 4.65621C3.67034 5.40515 2.34543 6.57263 1.41849 8.0252C0.49156 9.47777 0 11.1568 0 12.8704C0 14.5841 0.49156 16.2631 1.41849 17.7157C2.34543 19.1683 3.67034 20.3358 5.24178 21.0847C6.81323 21.8336 8.5678 22.1338 10.305 21.951C12.0421 21.7681 13.6918 21.1095 15.0654 20.0505C13.9562 19.1967 13.0596 18.1065 12.4434 16.8626C11.8273 15.6186 11.5078 14.2534 11.509 12.8704Z" fill="#EB001B"/>
<path d="M30.1305 12.8704C30.1306 14.584 29.6391 16.2631 28.7122 17.7157C27.7853 19.1682 26.4604 20.3357 24.889 21.0847C23.3176 21.8336 21.563 22.1338 19.8259 21.9509C18.0888 21.7681 16.4391 21.1095 15.0656 20.0505C16.1738 19.1958 17.0697 18.1055 17.6858 16.8617C18.3018 15.6179 18.6219 14.2532 18.6219 12.8704C18.6219 11.4877 18.3018 10.123 17.6858 8.87919C17.0697 7.63542 16.1738 6.54507 15.0656 5.69036C16.4391 4.63138 18.0888 3.97282 19.8259 3.78995C21.563 3.60708 23.3176 3.90727 24.889 4.65622C26.4604 5.40517 27.7853 6.57266 28.7122 8.02523C29.6391 9.4778 30.1306 11.1568 30.1305 12.8704Z" fill="#F79E1B"/>
<path d="M29.2421 18.5293V18.2353H29.363V18.1754H29.0552V18.2353H29.1761V18.5293H29.2421ZM29.8397 18.5293V18.1748H29.7454L29.6368 18.4186L29.5283 18.1748H29.4339V18.5293H29.5005V18.2619L29.6023 18.4924H29.6714L29.7732 18.2613V18.5293H29.8397Z" fill="#F79E1B"/>
<path d="M48.0186 10.1539L46.0362 19.3844H43.6382L45.6209 10.1539H48.0186ZM58.1065 16.1142L59.3686 12.6479L60.0948 16.1142H58.1065ZM60.7828 19.3844H63L61.0629 10.1539H59.0177C58.5568 10.1539 58.1682 10.4201 57.9963 10.8305L54.3984 19.3844H56.9166L57.4165 18.0059H60.4924L60.7828 19.3844ZM54.5233 16.371C54.5337 13.9349 51.1418 13.7999 51.1645 12.7115C51.1718 12.3807 51.4887 12.0284 52.1812 11.9383C52.5246 11.8943 53.472 11.8586 54.546 12.3515L54.9661 10.3933C54.3892 10.1855 53.6469 9.98535 52.7232 9.98535C50.3528 9.98535 48.6853 11.2393 48.672 13.0364C48.6567 14.3653 49.8631 15.1062 50.7701 15.5488C51.7053 16.0012 52.0186 16.2912 52.014 16.6955C52.0076 17.3147 51.2684 17.589 50.58 17.5994C49.3739 17.6181 48.6747 17.2747 48.1175 17.016L47.6822 19.0396C48.2434 19.2953 49.2773 19.5179 50.348 19.5293C52.8681 19.5293 54.5158 18.2901 54.5233 16.371ZM44.5924 10.1539L40.7073 19.3844H38.173L36.261 12.0178C36.1451 11.5648 36.044 11.3983 35.6915 11.2069C35.1149 10.8951 34.163 10.6034 33.326 10.422L33.3828 10.1539H37.4628C37.9825 10.1539 38.45 10.4984 38.5691 11.0946L39.5791 16.4364L42.0733 10.1539H44.5924Z" fill="#1434CB"/>
</svg>
