<svg width="86" height="49" viewBox="0 0 86 49" fill="none" xmlns="http://www.w3.org/2000/svg">
<path d="M50.2947 8.93277C49.427 7.84856 48.3211 6.98079 47.0638 6.39741C45.743 5.78853 44.305 5.47907 42.8518 5.49099H42.5379C39.0634 5.6414 35.7683 7.08186 33.2911 9.53321C30.814 11.9846 29.3312 15.2722 29.1303 18.7589C29.0455 21.2355 29.9428 23.6447 31.6252 25.4575C33.3077 27.2702 35.6376 28.3384 38.1036 28.4274H38.6137C41.7586 28.362 44.7935 27.2531 47.2449 25.2736C49.6964 23.2941 51.4264 20.5553 52.1652 17.4847C52.492 15.9608 52.492 14.3845 52.1652 12.8606C51.8566 11.4223 51.2159 10.0768 50.2947 8.93277ZM49.8761 16.9986C49.2484 19.5452 47.8074 21.8153 45.7736 23.4617C43.7397 25.108 41.2249 26.0401 38.6137 26.1154H38.2082C37.2873 26.0849 36.3814 25.8723 35.5424 25.49C34.7034 25.1076 33.9476 24.5629 33.3183 23.887C32.689 23.2111 32.1985 22.4173 31.875 21.5509C31.5514 20.6845 31.401 19.7625 31.4324 18.8377C31.6216 15.9422 32.8645 13.2177 34.9244 11.1829C36.9843 9.14808 39.7174 7.94511 42.6033 7.80303H42.8518C47.757 7.78989 50.9618 11.9542 49.8761 16.9986Z" fill="#96CC1C"/>
<path d="M76.1032 13.2814C76.034 13.0307 75.8798 12.8122 75.6672 12.6635C75.4547 12.5148 75.1971 12.4453 74.939 12.467H69.4582C69.1194 12.4411 68.7839 12.5487 68.5226 12.7669C68.2614 12.9851 68.095 13.2968 68.0586 13.6361C67.5877 16.027 67.0645 18.4178 66.5674 20.7955C66.3712 21.7808 66.5674 21.9516 67.5484 21.9516H77.7382C78.7716 21.9516 79.0463 21.4655 78.7585 20.5065C77.8952 18.0894 77.0188 15.6854 76.1032 13.2814ZM75.6061 19.6527H69.1704L69.4844 18.1288L70.1907 14.779H74.2195C74.4942 15.5278 74.7689 16.2897 75.0436 17.0254L76.0247 19.6527H75.6061Z" fill="#96CC1C"/>
<path d="M85.56 22.6742C84.6575 20.1125 83.6895 17.5509 82.7608 15.055C82.1591 13.4786 81.5574 11.8496 80.9687 10.2339C80.6909 9.41773 80.1817 8.70089 79.5037 8.17141C78.7772 7.65825 77.9065 7.39133 77.0184 7.40949C75.3964 7.40949 73.7483 7.40949 72.1393 7.40949C70.5304 7.40949 68.8561 7.40949 67.2341 7.40949C66.8554 7.41044 66.478 7.4545 66.1092 7.54085C66.3185 6.55561 66.5278 5.57037 66.7501 4.55886C66.937 3.99858 66.9929 3.40262 66.9135 2.81716C66.8341 2.2317 66.6215 1.67246 66.2923 1.18276C65.8271 0.60773 65.1645 0.228193 64.4349 0.118701C64.0021 0.0518217 63.5646 0.0210624 63.1268 0.0267427H24.853C23.78 -0.0650076 22.7094 0.228227 21.8314 0.854345C21.0426 1.58918 20.5377 2.58015 20.4056 3.65243C18.5874 12.1255 16.7561 20.73 14.8856 29.4395C14.6993 29.9904 14.6426 30.5771 14.7197 31.1537C14.7969 31.7303 15.0059 32.2811 15.3303 32.7631C15.7389 33.1873 16.2394 33.5112 16.793 33.7094C17.3466 33.9076 17.9383 33.9749 18.522 33.9059H19.4638C19.1144 34.1318 18.7782 34.3774 18.4566 34.6416C17.6782 35.2862 16.9993 36.0432 16.4421 36.8879C15.8616 37.7501 15.4201 38.6988 15.1341 39.6992C14.8125 40.8349 14.7411 42.0273 14.9248 43.1935C15.1047 44.3059 15.5539 45.3569 16.2329 46.2543C16.8856 47.1211 17.7386 47.8154 18.7182 48.2773C19.7409 48.7602 20.8582 49.007 21.9883 48.9998C24.3066 48.9626 26.5346 48.0909 28.267 46.5433C30.0425 45.0402 31.233 42.9561 31.6287 40.6581V40.3954C32.1812 40.5993 32.7669 40.6973 33.3554 40.6844H54.2843C54.8999 40.6993 55.5157 40.6774 56.1287 40.6187C56.6486 40.5795 57.1556 40.4366 57.6199 40.1983C57.3772 41.2505 57.3686 42.3434 57.5947 43.3993C57.8208 44.4551 58.276 45.4479 58.9279 46.3068C59.6119 47.1473 60.4773 47.8206 61.4585 48.2758C62.4397 48.7309 63.5112 48.9561 64.5918 48.9342H64.8404C67.0246 48.8471 69.1181 48.0339 70.792 46.6221C72.3747 45.3097 73.524 43.5463 74.0884 41.5645L74.2976 41.7616C74.8694 42.2437 75.58 42.5292 76.3251 42.5761C76.8829 42.6056 77.4417 42.6056 77.9995 42.5761H78.8366C79.9014 42.6645 80.964 42.3815 81.8452 41.7747C82.6521 41.0544 83.1725 40.0652 83.3102 38.9898C83.5064 38.0308 83.7157 37.0587 83.925 36.126C84.5921 33.0521 85.233 29.873 85.874 26.7202C86.1162 25.3668 86.0081 23.9736 85.56 22.6742ZM29.4181 40.2509C29.0907 41.9924 28.1884 43.5722 26.857 44.7354C25.5255 45.8985 23.8426 46.5771 22.0799 46.6615C21.2947 46.7059 20.5109 46.5527 19.7996 46.2157C19.0884 45.8787 18.4722 45.3686 18.007 44.7318C17.5418 44.095 17.2424 43.3516 17.1359 42.5691C17.0293 41.7866 17.1191 40.9897 17.397 40.2509C17.8349 38.7203 18.7242 37.3588 19.9477 36.3458C21.1713 35.3328 22.6717 34.7157 24.2513 34.5759H24.696C25.4049 34.5545 26.1093 34.695 26.7562 34.9869C27.403 35.2789 27.9755 35.7145 28.4302 36.261C28.8849 36.8075 29.2102 37.4506 29.3813 38.1418C29.5524 38.833 29.565 39.5541 29.4181 40.2509ZM57.5937 35.5874C57.0574 38.3461 57.0574 38.3461 54.3105 38.3461H33.3815C32.165 38.3461 31.9427 38.0439 32.165 36.8748C32.6882 34.2475 32.8321 33.9453 34.2579 33.9453H56.2464C57.7376 33.9585 57.8815 34.1424 57.5937 35.5874ZM58.9018 29.8336C58.5617 31.3837 58.3262 31.5808 56.7696 31.5808H18.522C16.9654 31.5808 16.8084 31.3837 17.1223 29.8993C18.9711 21.308 20.8111 12.7123 22.6423 4.11222C22.9824 2.54897 23.2702 2.3125 24.853 2.3125H62.9306C64.5264 2.3125 64.6834 2.49642 64.3564 4.05967C62.5251 12.651 60.6851 21.2423 58.8364 29.8336H58.9018ZM71.9824 40.6844C71.5793 42.321 70.6643 43.7847 69.3718 44.8605C68.0792 45.9363 66.4773 46.5675 64.8011 46.6615H64.618C63.8654 46.6837 63.1184 46.5248 62.4393 46.1981C61.7603 45.8714 61.1689 45.3863 60.7145 44.7834C60.26 44.1805 59.9557 43.4771 59.827 42.7321C59.6983 41.9871 59.7488 41.2219 59.9744 40.5005C60.3806 38.964 61.2356 37.5848 62.4292 36.5405C63.6228 35.4963 65.1004 34.8349 66.6716 34.6416C66.872 34.6285 67.073 34.6285 67.2734 34.6416C68.0148 34.6212 68.7507 34.7765 69.4212 35.095C70.0918 35.4134 70.6783 35.8861 71.133 36.4746C71.5878 37.0631 71.8981 37.7509 72.0389 38.4823C72.1796 39.2137 72.1468 39.9681 71.9431 40.6844H71.9824ZM83.6634 26.3655C82.8785 30.451 81.976 34.5102 81.0472 38.5825C80.7202 40.1064 80.4063 40.356 78.8235 40.356H77.9864C75.5011 40.356 75.5272 40.356 75.2656 37.9126C75.1859 37.0699 75.0193 36.2379 74.7685 35.4298C74.4956 34.4356 73.9227 33.5508 73.1287 32.8968C72.3346 32.2429 71.3584 31.852 70.3342 31.7778C67.7181 31.5282 65.102 31.607 62.5905 31.5545C61.2824 31.5545 61.0862 31.2655 61.2824 30.0306C62.5905 23.6857 64.0032 17.367 65.3505 11.0352C65.3698 10.8378 65.4286 10.6463 65.5234 10.4723C65.6182 10.2983 65.7471 10.1453 65.9022 10.0226C66.0574 9.89993 66.2357 9.81 66.4264 9.75826C66.617 9.70651 66.8161 9.69401 67.0117 9.72152H71.9431H76.8353C77.2455 9.68982 77.6538 9.80405 77.9886 10.0442C78.3234 10.2844 78.5634 10.6352 78.6666 11.0352C80.1839 15.1732 81.7797 19.2849 83.2448 23.4492C83.6127 24.374 83.7432 25.3769 83.6241 26.3655H83.6634Z" fill="#96CC1C"/>
<path d="M42.1589 16.1581L42.8522 12.4536C42.8797 12.3052 42.8778 12.1529 42.8466 12.0052C42.8155 11.8576 42.7557 11.7176 42.6707 11.5931C42.5857 11.4687 42.4771 11.3623 42.3511 11.2801C42.2251 11.1978 42.0843 11.1412 41.9365 11.1136C41.7888 11.086 41.6371 11.0879 41.4901 11.1192C41.3431 11.1505 41.2037 11.2105 41.0798 11.2959C40.9559 11.3813 40.85 11.4903 40.768 11.6168C40.6861 11.7434 40.6298 11.8848 40.6023 12.0332L39.7782 16.3682C39.7439 16.5623 39.7596 16.7619 39.8237 16.9481C39.8878 17.1343 39.9982 17.301 40.1445 17.4323L42.6952 19.7575C42.9041 19.9543 43.1806 20.0625 43.467 20.0596C43.699 20.0628 43.9265 19.9946 44.1189 19.8643C44.3112 19.734 44.4593 19.5477 44.5433 19.3304C44.6273 19.1131 44.6431 18.8753 44.5887 18.6487C44.5342 18.4222 44.4121 18.2178 44.2387 18.0629L42.1589 16.1581Z" fill="#96CC1C"/>
<path d="M16.9917 1.15602C16.9917 0.849424 16.8704 0.555384 16.6546 0.338589C16.4387 0.121794 16.1459 0 15.8406 0H1.15109C0.845803 0 0.553019 0.121794 0.337147 0.338589C0.121275 0.555384 0 0.849424 0 1.15602C0 1.46261 0.121275 1.75665 0.337147 1.97345C0.553019 2.19024 0.845803 2.31203 1.15109 2.31203H15.8406C16.1459 2.31203 16.4387 2.19024 16.6546 1.97345C16.8704 1.75665 16.9917 1.46261 16.9917 1.15602Z" fill="#96CC1C"/>
<path d="M13.2765 9.60291H2.60275C2.29747 9.60291 2.00468 9.7247 1.78881 9.9415C1.57294 10.1583 1.45166 10.4523 1.45166 10.7589C1.45166 11.0655 1.57294 11.3596 1.78881 11.5764C2.00468 11.7931 2.29747 11.9149 2.60275 11.9149H13.2765C13.4277 11.9149 13.5774 11.885 13.717 11.8269C13.8567 11.7689 13.9836 11.6837 14.0905 11.5764C14.1974 11.469 14.2821 11.3416 14.34 11.2013C14.3978 11.0611 14.4276 10.9107 14.4276 10.7589C14.4276 10.6071 14.3978 10.4568 14.34 10.3165C14.2821 10.1763 14.1974 10.0488 14.0905 9.9415C13.9836 9.83415 13.8567 9.749 13.717 9.6909C13.5774 9.63281 13.4277 9.60291 13.2765 9.60291Z" fill="#96CC1C"/>
<path d="M10.7654 19.2321H4.04196C3.8908 19.2321 3.74111 19.262 3.60146 19.3201C3.4618 19.3782 3.3349 19.4634 3.22802 19.5707C3.12113 19.6781 3.03634 19.8055 2.97849 19.9457C2.92064 20.086 2.89087 20.2363 2.89087 20.3881C2.89087 20.5399 2.92064 20.6903 2.97849 20.8305C3.03634 20.9708 3.12113 21.0982 3.22802 21.2056C3.3349 21.3129 3.4618 21.3981 3.60146 21.4562C3.74111 21.5142 3.8908 21.5441 4.04196 21.5441H10.7654C11.0707 21.5441 11.3635 21.4224 11.5793 21.2056C11.7952 20.9888 11.9165 20.6947 11.9165 20.3881C11.9165 20.0815 11.7952 19.7875 11.5793 19.5707C11.3635 19.3539 11.0707 19.2321 10.7654 19.2321Z" fill="#96CC1C"/>
</svg>
