<svg width="577" height="146" viewBox="0 0 577 146" fill="none" xmlns="http://www.w3.org/2000/svg">
<g clip-path="url(#clip0_409_6093)">
<path d="M397.356 135.152L406.542 110.966L382.657 110.819L394.563 76.2979H416.17L408.673 96.7466H429.692L397.356 135.152Z" fill="#FFF388"/>
<path d="M429.693 96.7471L442.187 106.275L410.438 145.194L397.356 135.153L429.693 96.7471Z" fill="#D3C96E"/>
<path d="M416.17 76.2979L428.737 86.1191L424.475 96.7466H408.674L416.17 76.2979Z" fill="#D3C96E"/>
<path d="M382.657 110.819L396.694 120.128H403.088L406.542 110.966L382.657 110.819Z" fill="#D3C96E"/>
<path d="M115 129.582L126.538 115.363C130.874 118.588 137.415 120.64 143.809 120.64C149.394 120.64 151.819 119.468 152.481 117.489C155.127 110.233 120.879 116.096 128.743 94.4745C132.638 83.7005 144.911 74.9053 162.917 74.9053C170.707 74.9053 178.203 76.591 182.98 79.9625L171.883 94.1081C167.179 91.1764 162.329 89.7838 157.258 89.7838C151.525 89.7838 149.1 91.4695 148.365 93.4484C145.793 100.411 180.04 94.6211 172.25 115.949C168.502 126.65 156.155 135.592 138.15 135.592C128.449 135.592 119.483 133.173 115 129.582Z" fill="#C2F6F9"/>
<path d="M152.481 117.562C151.966 119.028 150.496 120.054 147.557 120.494L131.462 108.181C138.885 113.678 154.244 112.578 152.481 117.562Z" fill="#479997"/>
<path d="M182.98 80.0361L197.384 91.0301L186.213 105.249L171.956 94.1817L182.98 80.0361Z" fill="#82D4D8"/>
<path d="M180.702 123.425C176.807 134.053 164.534 142.995 146.528 142.995C139.547 142.995 132.932 141.749 128.082 139.696L123.819 136.471L115.441 130.022C117.867 131.781 121.468 133.247 125.657 134.273C129.405 135.152 133.741 135.665 138.15 135.665C156.156 135.665 168.503 126.723 172.324 116.096C173.574 112.578 173.721 109.793 173.133 107.594C172.618 105.762 171.516 104.296 170.119 103.123L176.146 107.814C177.616 108.987 178.865 110.379 179.894 111.845C180.482 112.724 180.996 113.677 181.437 114.703C182.172 116.902 182.025 119.761 180.702 123.425Z" fill="#82D4D8"/>
<path d="M186.214 105.249C185.846 105.102 173.279 100.998 165.489 100.412C157.625 97.3333 146.969 97.4799 148.439 93.5221C149.174 91.5432 151.599 89.8574 157.331 89.8574C162.402 89.8574 167.253 91.25 171.956 94.1817L186.214 105.249Z" fill="#479997"/>
<path d="M234.645 76.6641H215.39L168.796 134.639H188.712L196.282 124.525H218.329L218.55 134.639H238.834L234.645 76.6641ZM206.865 110.452L217.815 95.8669L218.109 110.452H206.865Z" fill="#C2F6F9"/>
<path d="M218.109 110.453H206.864L217.815 95.8672L218.109 110.453Z" fill="#479997"/>
<path d="M234.645 76.6641L249.416 87.8779L253.679 145.999L238.834 134.639L234.645 76.6641Z" fill="#82D4D8"/>
<path d="M253.679 145.999H233.542L218.623 134.639H238.833L253.679 145.999Z" fill="#479997"/>
<path d="M203.558 145.999H183.715L168.796 134.639H188.712L203.558 145.999Z" fill="#479997"/>
<path d="M196.282 124.524L211.494 136.251L203.557 145.999L188.712 134.639L196.282 124.524Z" fill="#82D4D8"/>
<path d="M211.495 136.251H220.755L218.624 134.639L218.403 124.524H196.282L211.495 136.251Z" fill="#479997"/>
<path d="M268.451 76.2979H288.073L272.419 119.101H298.656L293.144 134.273H247.285L268.451 76.2979Z" fill="#C2F6F9"/>
<path d="M288.073 76.2979L302.11 87.3651L291.453 119.101H272.419L288.073 76.2979Z" fill="#82D4D8"/>
<path d="M298.656 119.101L313.061 130.168L307.622 145.706L293.145 134.272L298.656 119.101Z" fill="#82D4D8"/>
<path d="M247.285 134.272L262.498 145.706H307.622L293.144 134.272H247.285Z" fill="#479997"/>
<path d="M330.332 111.918L326.363 122.839H344.516L330.332 111.918Z" fill="#82D4D8"/>
<path d="M337.975 91.0293L352.159 101.95H334.227L337.975 91.0293Z" fill="#82D4D8"/>
<path d="M371.34 76.2979L385.156 86.7788L380.232 101.95L365.975 91.0298L371.34 76.2979Z" fill="#82D4D8"/>
<path d="M365.02 145.193H317.029L302.919 134.272H351.277L365.02 145.193Z" fill="#479997"/>
<path d="M369.135 122.839H344.515L330.405 111.991L330.331 111.918H354.951L369.135 122.839Z" fill="#479997"/>
<path d="M380.232 101.95H352.159L337.975 91.1026V91.0293H365.975L380.232 101.95Z" fill="#479997"/>
<path d="M356.642 119.541L351.277 134.273H302.919L324.085 76.2979H371.34L365.975 91.0298H337.975L335.476 97.846H360.022L354.878 111.918H330.331L327.539 119.541H356.642Z" fill="#C2F6F9"/>
<path d="M356.641 119.541L370.237 129.875L365.019 145.194L351.276 134.273L356.641 119.541Z" fill="#82D4D8"/>
<path d="M360.022 97.9189L373.839 108.4L369.135 122.839L354.951 111.918L360.022 97.9189Z" fill="#82D4D8"/>
<path d="M202.161 1.24609L213.038 9.52822L207.82 23.967L196.943 15.465L202.161 1.24609Z" fill="#E5CAD0"/>
<path d="M207.82 23.9669H167.326L170.413 15.3916H196.943L207.82 23.9669Z" fill="#BF8E9A"/>
<path d="M181.29 23.9669L180.922 24.993H166.959L170.413 15.3916L181.29 23.9669Z" fill="#E5CAD0"/>
<path d="M190.183 24.9932L203.558 35.6207L198.634 49.1066L185.038 39.1387L190.183 24.9932Z" fill="#E5CAD0"/>
<path d="M198.634 49.1065H174.749L161.741 39.1387H185.038L198.634 49.1065Z" fill="#BF8E9A"/>
<path d="M170.413 15.465L166.959 24.9931H190.256L185.112 39.1387H161.741L155.274 56.9489H136.46L156.744 1.24609H202.088L196.944 15.3917H170.413V15.465Z" fill="white"/>
<path d="M174.749 49.1065L169.31 67.723L155.273 56.9489L161.741 39.1387L174.749 49.1065Z" fill="#E5CAD0"/>
<path d="M169.311 67.7233H150.203L136.46 56.9492H155.274L169.311 67.7233Z" fill="#BF8E9A"/>
<path d="M211.128 1.24609H229.941L214.949 42.3636H240.157L234.865 56.9489H190.844L211.128 1.24609Z" fill="white"/>
<path d="M229.942 1.24609L243.464 11.8736L233.249 42.3636H214.949L229.942 1.24609Z" fill="#E5CAD0"/>
<path d="M240.157 42.3633L253.973 52.9908L248.829 67.9426L234.865 56.9486L240.157 42.3633Z" fill="#E5CAD0"/>
<path d="M190.844 56.9492L205.469 67.9432H248.829L234.865 56.9492H190.844Z" fill="#BF8E9A"/>
<path d="M305.859 1.24609H287.339L242.582 56.9489H261.69L268.966 47.2742H290.205L290.425 56.9489H309.901L305.859 1.24609ZM279.181 33.715L289.69 19.716L289.984 33.715H279.181Z" fill="white"/>
<path d="M290.057 33.7148H279.181L289.764 19.7158L290.057 33.7148Z" fill="#BF8E9A"/>
<path d="M305.858 1.24609L320.042 12.0202L324.231 67.8696L309.974 56.9489L305.858 1.24609Z" fill="#E5CAD0"/>
<path d="M324.232 67.8699H304.83L290.499 56.9492H309.974L324.232 67.8699Z" fill="#BF8E9A"/>
<path d="M276.021 67.8699H256.986L242.655 56.9492H261.763L276.021 67.8699Z" fill="#BF8E9A"/>
<path d="M269.113 47.2744L283.664 58.4883L276.021 67.8698L261.764 56.9491L269.113 47.2744Z" fill="#E5CAD0"/>
<path d="M283.664 58.4883H292.556L290.498 56.9491L290.278 47.2744H269.112L283.664 58.4883Z" fill="#BF8E9A"/>
<path d="M316.295 52.4779L327.319 38.7721C331.434 41.8504 337.755 43.8293 343.854 43.8293C349.219 43.8293 351.498 42.7299 352.232 40.8243C354.805 33.8614 321.88 39.505 329.45 18.6898C333.272 8.42871 345.03 0 362.301 0C369.797 0 376.926 1.61245 381.556 4.83735L370.899 18.4699C366.416 15.6847 361.713 14.3655 356.862 14.3655C351.351 14.3655 348.999 15.9779 348.337 17.8835C345.912 24.5532 378.763 18.9829 371.267 39.505C367.519 49.6928 355.76 58.2681 338.416 58.2681C329.156 58.1948 320.631 55.9227 316.295 52.4779Z" fill="white"/>
<path d="M374.941 53.6511C372.663 56.6561 370.311 58.2685 370.311 58.2685C352.232 71.5346 330.185 63.4723 330.185 63.4723L316.295 52.5517C320.631 55.9964 329.23 58.2685 338.489 58.2685C355.834 58.2685 367.592 49.6932 371.34 39.5055C373.472 33.642 372.369 29.9041 369.65 27.4121C370.311 27.7786 370.973 28.145 371.414 28.4382C379.645 34.3017 381.115 45.6621 374.941 53.6511Z" fill="#E5CAD0"/>
<path d="M381.629 4.83691L395.519 15.2445L385.524 29.4634L370.973 18.4694L381.629 4.83691Z" fill="#E5CAD0"/>
<path d="M385.524 29.4637C385.157 29.3171 375.236 25.1394 366.417 25.1394C358.773 21.4014 346.941 21.9145 348.411 17.8101C349.146 15.9044 351.424 14.292 356.936 14.292C361.787 14.292 366.49 15.6846 370.973 18.3964L385.524 29.4637Z" fill="#BF8E9A"/>
<path d="M352.233 40.8976C351.718 42.2902 350.322 43.243 347.529 43.6828L332.61 32.249C339.96 37.1597 353.923 36.2069 352.233 40.8976Z" fill="#BF8E9A"/>
<path d="M406.028 68.8223L412.789 47.9338L398.164 36.4268L390.668 56.9488L406.028 68.8223Z" fill="#E5CAD0"/>
<path d="M447.184 1.24609L426.9 56.9489H408.086L415.582 36.4268H398.165L390.668 56.9489H371.854L392.138 1.24609H410.952L403.823 20.962H421.241L428.443 1.24609H447.184Z" fill="white"/>
<path d="M411.025 1.24609L424.621 11.6537L421.167 20.962H403.823L411.025 1.24609Z" fill="#E5CAD0"/>
<path d="M447.184 1.24609L461.001 11.9469L442.187 68.8224L426.9 56.9489L447.184 1.24609Z" fill="#E5CAD0"/>
<path d="M442.186 68.8227H423.593L408.086 56.9492H426.9L442.186 68.8227Z" fill="#BF8E9A"/>
<path d="M398.165 36.4268L411.688 47.0543L415.583 36.4268H398.165Z" fill="#BF8E9A"/>
<path d="M406.028 68.8227H387.435L371.854 56.9492H390.668L406.028 68.8227Z" fill="#BF8E9A"/>
</g>
<mask id="mask0_409_6093" style="mask-type:luminance" maskUnits="userSpaceOnUse" x="507" y="51" width="70" height="47">
<path d="M561.2 51.1992L509.5 74.9992C507.2 75.9992 507.5 79.2992 509.9 79.9992L573.2 97.7992C575.2 98.3992 577.1 96.4992 576.5 94.4992L564.9 52.9992C564.5 51.3992 562.7 50.5992 561.2 51.1992Z" fill="white"/>
</mask>
<g mask="url(#mask0_409_6093)">
<path d="M281.6 -93.9014L709.9 235.699" stroke="white" stroke-width="2.5189" stroke-miterlimit="10"/>
<path d="M285 -99.9014L713.3 229.599" stroke="white" stroke-width="2.5189" stroke-miterlimit="10"/>
<path d="M288.3 -106.001L716.6 223.599" stroke="white" stroke-width="2.5189" stroke-miterlimit="10"/>
<path d="M291.699 -112.001L719.999 217.499" stroke="white" stroke-width="2.5189" stroke-miterlimit="10"/>
<path d="M295 -118.101L723.3 211.499" stroke="white" stroke-width="2.5189" stroke-miterlimit="10"/>
<path d="M298.399 -124.101L726.699 205.399" stroke="white" stroke-width="2.5189" stroke-miterlimit="10"/>
<path d="M301.699 -130.201L729.999 199.399" stroke="white" stroke-width="2.5189" stroke-miterlimit="10"/>
<path d="M305.1 -136.201L733.4 193.299" stroke="white" stroke-width="2.5189" stroke-miterlimit="10"/>
<path d="M308.399 -142.301L736.699 187.299" stroke="white" stroke-width="2.5189" stroke-miterlimit="10"/>
<path d="M311.8 -148.301L740.1 181.199" stroke="white" stroke-width="2.5189" stroke-miterlimit="10"/>
<path d="M315.1 -154.401L743.4 175.199" stroke="white" stroke-width="2.5189" stroke-miterlimit="10"/>
<path d="M318.5 -160.401L746.8 169.099" stroke="white" stroke-width="2.5189" stroke-miterlimit="10"/>
<path d="M321.899 -166.501L750.199 163.099" stroke="white" stroke-width="2.5189" stroke-miterlimit="10"/>
<path d="M325.199 -172.501L753.499 156.999" stroke="white" stroke-width="2.5189" stroke-miterlimit="10"/>
</g>
<path d="M544 106.899L514.7 92.6995C513.1 91.8995 511.3 93.4995 511.9 95.1995L522.2 124.899C522.7 126.199 524.3 126.699 525.4 125.799L544.4 110.299C545.5 109.299 545.3 107.499 544 106.899Z" fill="white"/>
<path d="M522.2 56.0996L543.7 41.2996C544.7 40.5996 544.7 39.0996 543.7 38.2996L531.2 29.4996C530.2 28.7996 528.9 29.1996 528.5 30.2996L519.5 53.8996C518.9 55.5996 520.8 57.0996 522.2 56.0996Z" stroke="white" stroke-width="2.5831" stroke-miterlimit="10" stroke-linecap="round" stroke-linejoin="round"/>
<path d="M74.8995 45.6997L60.3995 14.5997C59.6995 13.0997 57.6995 12.5997 56.3995 13.6997L40.0995 27.6997C38.6995 28.8997 38.9995 30.9997 40.4995 31.8997L71.2995 48.9997C73.5995 50.2997 75.9995 47.9997 74.8995 45.6997Z" fill="white"/>
<mask id="mask1_409_6093" style="mask-type:luminance" maskUnits="userSpaceOnUse" x="0" y="30" width="64" height="45">
<path d="M61.5996 53.7993L10.2995 30.4993C8.59954 29.6993 6.59954 30.7993 6.29954 32.6993L0.399546 71.6993C0.0995462 73.6993 1.99955 75.3993 3.99955 74.8993L61.1996 59.1993C63.6996 58.3993 63.9996 54.8993 61.5996 53.7993Z" fill="white"/>
</mask>
<g mask="url(#mask1_409_6093)">
<path d="M-276.2 -113.4L194.9 249" stroke="white" stroke-width="2.7701" stroke-miterlimit="10"/>
<path d="M-272.5 -120.101L198.6 242.299" stroke="white" stroke-width="2.7701" stroke-miterlimit="10"/>
<path d="M-268.8 -126.7L202.2 235.7" stroke="white" stroke-width="2.7701" stroke-miterlimit="10"/>
<path d="M-265.101 -133.4L205.899 229" stroke="white" stroke-width="2.7701" stroke-miterlimit="10"/>
<path d="M-261.4 -140L209.6 222.4" stroke="white" stroke-width="2.7701" stroke-miterlimit="10"/>
<path d="M-257.7 -146.7L213.3 215.7" stroke="white" stroke-width="2.7701" stroke-miterlimit="10"/>
<path d="M-254 -153.301L217 209.099" stroke="white" stroke-width="2.7701" stroke-miterlimit="10"/>
<path d="M-250.3 -160L220.7 202.4" stroke="white" stroke-width="2.7701" stroke-miterlimit="10"/>
<path d="M-246.601 -166.601L224.399 195.799" stroke="white" stroke-width="2.7701" stroke-miterlimit="10"/>
<path d="M-243 -173.301L228.1 189.099" stroke="white" stroke-width="2.7701" stroke-miterlimit="10"/>
<path d="M-239.3 -179.9L231.8 182.4" stroke="white" stroke-width="2.7701" stroke-miterlimit="10"/>
<path d="M-235.601 -186.601L235.399 175.799" stroke="white" stroke-width="2.7701" stroke-miterlimit="10"/>
<path d="M-231.9 -193.2L239.1 169.1" stroke="white" stroke-width="2.7701" stroke-miterlimit="10"/>
<path d="M-228.2 -199.9L242.8 162.5" stroke="white" stroke-width="2.7701" stroke-miterlimit="10"/>
</g>
<path d="M26.1996 87.1002L56.7996 70.7002C59.0996 69.5002 61.5996 71.7002 60.6996 74.1002L48.9996 106.4C48.2996 108.2 46.0996 108.8 44.5996 107.6L25.6996 91.7002C24.1996 90.4002 24.3996 88.0002 26.1996 87.1002Z" stroke="white" stroke-width="2.5831" stroke-miterlimit="10" stroke-linecap="round" stroke-linejoin="round"/>
<defs>
<clipPath id="clip0_409_6093">
<rect width="346" height="146" fill="white" transform="translate(115)"/>
</clipPath>
</defs>
</svg>
