<svg width="30" height="30" viewBox="0 0 30 30" fill="none" xmlns="http://www.w3.org/2000/svg">
<path d="M5.625 4.6875C5.625 2.09866 7.72367 0 10.3125 0C12.9013 0 15 2.09867 15 4.6875C15 2.09867 17.0987 0 19.6875 0C22.2763 0 24.375 2.09866 24.375 4.6875L24.375 4.69794C24.3751 4.82893 24.3752 5.20438 24.3041 5.625H28.125C29.1605 5.625 30 6.46447 30 7.5V11.25C30 12.2855 29.1605 13.125 28.125 13.125V27.1875C28.125 28.7408 26.8658 30 25.3125 30H4.6875C3.1342 30 1.875 28.7408 1.875 27.1875L1.875 13.125C0.839468 13.125 0 12.2855 0 11.25V7.5C0 6.46447 0.839466 5.625 1.875 5.625H5.69592C5.62475 5.20437 5.62493 4.82893 5.625 4.69794C5.625 4.69426 5.625 4.69078 5.625 4.6875ZM7.62748 5.625H13.125V4.6875C13.125 3.1342 11.8658 1.875 10.3125 1.875C8.7592 1.875 7.5 3.1342 7.5 4.6875C7.5 4.84641 7.50365 5.20033 7.58415 5.49551C7.59847 5.54802 7.61332 5.591 7.62748 5.625ZM16.875 5.625H22.3725C22.3867 5.591 22.4015 5.54802 22.4158 5.49551C22.4964 5.20033 22.5 4.84641 22.5 4.6875C22.5 3.1342 21.2408 1.875 19.6875 1.875C18.1342 1.875 16.875 3.1342 16.875 4.6875V5.625ZM1.875 7.5V11.25H13.125V7.5H1.875ZM16.875 7.5V11.25H28.125V7.5H16.875ZM26.25 13.125H16.875V28.125H25.3125C25.8303 28.125 26.25 27.7053 26.25 27.1875V13.125ZM13.125 28.125V13.125H3.75V27.1875C3.75 27.7053 4.16973 28.125 4.6875 28.125H13.125Z" fill="white"/>
</svg>
