<svg width="51" height="62" viewBox="0 0 51 62" fill="none" xmlns="http://www.w3.org/2000/svg">
<path fill-rule="evenodd" clip-rule="evenodd" d="M51 15.0604C51 12.4098 49.4378 10.0061 47.0153 8.92836C42.0267 6.71254 32.5058 2.48088 28.2258 0.577776C26.4905 -0.192592 24.5095 -0.192592 22.7742 0.577776C18.4942 2.48088 8.97331 6.71254 3.9847 8.92836C1.5622 10.0061 0 12.4098 0 15.0604V35.7302C0 44.0164 4.58464 49.9109 9.90474 53.9251C15.0759 57.8253 20.9221 59.9257 23.6291 60.7551C23.6358 60.7578 23.6439 60.7591 23.6506 60.7618C24.8585 61.1094 26.1402 61.1094 27.3481 60.7631C27.3562 60.7605 27.3642 60.7591 27.3722 60.7564C30.0792 59.9257 35.9241 57.8266 41.0953 53.9251C46.4154 49.9109 51 44.0164 51 35.7302V15.0604ZM48.3158 15.0604V35.7302C48.3158 43.0594 44.1848 48.2306 39.478 51.7818C34.6304 55.4404 29.1465 57.4039 26.5978 58.1863C25.8825 58.389 25.1242 58.389 24.4089 58.1863C21.8549 57.4025 16.371 55.4404 11.522 51.7818C6.8152 48.2306 2.68421 43.0594 2.68421 35.7302V15.0604C2.68421 13.47 3.62102 12.0286 5.07586 11.3817C10.0631 9.16457 19.584 4.93291 23.8653 3.03115C24.9055 2.56812 26.0945 2.56812 27.1347 3.03115C31.416 4.93291 40.9369 9.16457 45.9241 11.3817C47.379 12.0286 48.3158 13.47 48.3158 15.0604Z" fill="#96CC1C"/>
<path fill-rule="evenodd" clip-rule="evenodd" d="M25.4997 15.8982C17.4336 15.8982 10.8855 22.4463 10.8855 30.511C10.8855 38.5771 17.4336 45.1252 25.4997 45.1252C33.5657 45.1252 40.1139 38.5771 40.1139 30.511C40.1139 22.4463 33.5657 15.8982 25.4997 15.8982ZM25.4997 18.5824C32.0841 18.5824 37.4297 23.9267 37.4297 30.511C37.4297 37.0954 32.0841 42.441 25.4997 42.441C18.9153 42.441 13.5697 37.0954 13.5697 30.511C13.5697 23.9267 18.9153 18.5824 25.4997 18.5824Z" fill="#96CC1C"/>
<path fill-rule="evenodd" clip-rule="evenodd" d="M18.857 31.4603L22.653 35.2564C23.1769 35.7802 24.0272 35.7802 24.551 35.2564L32.1431 27.6643C32.667 27.1404 32.667 26.2901 32.1431 25.7662C31.6193 25.2424 30.769 25.2424 30.2451 25.7662L23.602 32.4093L20.755 29.5623C20.2311 29.0384 19.3808 29.0384 18.857 29.5623C18.3331 30.0861 18.3331 30.9364 18.857 31.4603Z" fill="#96CC1C"/>
</svg>
