<svg width="80" height="80" viewBox="0 0 80 80" fill="none" xmlns="http://www.w3.org/2000/svg">
<g clip-path="url(#clip0_258_6125)">
<path d="M37.6471 80.0002C58.439 80.0002 75.2941 63.145 75.2941 42.3531C75.2941 21.5612 58.439 4.70605 37.6471 4.70605C16.8552 4.70605 0 21.5612 0 42.3531C0 63.145 16.8552 80.0002 37.6471 80.0002Z" fill="#322E2E"/>
<path d="M41.4117 76.2355C62.2036 76.2355 79.0588 59.3804 79.0588 38.5885C79.0588 17.7966 62.2036 0.941406 41.4117 0.941406C20.6198 0.941406 3.76465 17.7966 3.76465 38.5885C3.76465 59.3804 20.6198 76.2355 41.4117 76.2355Z" fill="#F6A89E" stroke="#322E2E" stroke-width="3" stroke-miterlimit="1.5" stroke-linecap="round"/>
<path fill-rule="evenodd" clip-rule="evenodd" d="M41.4118 27.5455C46.055 19.3886 55.2785 19.3886 59.9216 23.467C64.5648 27.5455 64.5648 35.7023 59.9216 43.8592C56.6589 49.9455 48.3765 56.0945 41.4118 60.1729C34.5099 56.0945 26.1648 50.0082 22.902 43.8592C18.2589 35.7023 18.2589 27.5455 22.902 23.467C27.5452 19.3886 36.7687 19.3886 41.4118 27.5455Z" fill="#C3E6E2" stroke="#322E2E" stroke-width="3" stroke-miterlimit="1.5" stroke-linecap="round"/>
</g>
<defs>
<clipPath id="clip0_258_6125">
<rect width="80" height="80" fill="white"/>
</clipPath>
</defs>
</svg>
