<svg width="92" height="84" viewBox="0 0 92 84" fill="none" xmlns="http://www.w3.org/2000/svg">
<path d="M82.5547 42.4322C90.7965 60.9416 72.1832 57.4051 57.7171 63.8466C43.251 70.288 20.862 70.6234 12.6202 52.114C4.37839 33.6045 14.9079 25.162 29.374 18.7206C43.8401 12.2791 77.9594 13.5856 82.5547 42.4322Z" fill="#FF8000"/>
<path d="M35.9239 31.0388C36.4631 30.4092 36.858 30.0847 37.1084 30.0654C37.2754 30.0524 37.6364 30.1589 38.1913 30.3848C38.5562 30.5413 38.8473 31.0479 39.0647 31.9045C39.2821 32.7612 39.5686 34.6203 39.9243 37.4819C40.1897 39.6114 40.3611 41.177 40.4386 42.1789C40.5548 43.6816 40.4448 44.7567 40.1085 45.4042C39.6541 46.2624 39.1264 46.7147 38.5253 46.7612C37.991 46.8025 37.4906 46.5221 37.0241 45.9199C36.573 45.2996 36.2375 44.4354 36.0174 43.327L35.6235 41.1654L32.8686 41.706C31.0127 42.0342 29.8176 42.219 29.2833 42.2603C28.8993 42.29 28.6611 42.468 28.5687 42.7943C28.4918 43.1026 28.4953 43.7994 28.5792 44.8847C28.6644 45.9867 28.6557 46.7433 28.5531 47.1543C28.4492 47.5487 28.1424 47.9251 27.6326 48.2837C27.1434 48.6911 26.7819 48.9038 26.5481 48.9219C26.3645 48.9361 26.1107 48.8045 25.7869 48.5272C25.2679 48.1138 24.8141 47.2418 24.4257 45.9113C24.0373 44.5808 23.6473 42.5785 23.2558 39.9045C23.1206 39.0247 23.0194 38.1507 22.9523 37.2824C22.8425 35.8631 22.9076 34.8587 23.1476 34.269C23.3876 33.6794 23.8582 33.3574 24.5595 33.3032C25.3776 33.24 25.9647 33.4465 26.3207 33.9229C26.6766 34.3993 26.903 35.2636 26.9999 36.5159C27.0709 37.4343 27.1411 38.0167 27.2106 38.2633C27.28 38.5099 27.44 38.6235 27.6904 38.6042C27.8407 38.5925 28.0963 38.5308 28.4572 38.4189C29.3407 38.1154 30.7195 37.8073 32.5933 37.4944L35.4562 37.0463L35.2625 34.5417C35.1889 33.59 35.2002 32.8668 35.2964 32.3723C35.3912 31.861 35.6004 31.4165 35.9239 31.0388ZM50.1313 36.7935C49.5596 36.3506 49.1735 36.1369 48.9731 36.1523C48.7728 36.1678 48.4588 36.4525 48.0313 37.0062C47.1609 38.1317 46.7716 39.2872 46.8632 40.4727C46.9136 41.1239 47.1155 41.671 47.4688 42.114C47.821 42.5403 48.3034 42.8054 48.9161 42.9092C49.1717 42.9566 49.408 42.9719 49.6251 42.9551C50.1093 42.9177 50.4939 42.678 50.7789 42.236C51.1511 41.6193 51.2927 40.7349 51.2036 39.5828C51.0939 38.1636 50.7365 37.2338 50.1313 36.7935ZM44.7127 34.4913C45.4175 33.6138 45.9798 33.0664 46.3998 32.8491C46.8184 32.6152 47.5537 32.4576 48.6056 32.3762C50.5926 32.2226 52.1701 32.7473 53.3381 33.9504C54.5048 35.1367 55.1805 36.9238 55.3651 39.3115C55.4878 40.8977 55.2719 42.3421 54.7175 43.6448C54.1799 44.9461 53.4102 45.8539 52.4085 46.3681C51.4711 46.8437 50.7185 47.1034 50.1508 47.1473C49.4996 47.1977 48.524 46.9624 47.2239 46.4414C45.9766 45.9499 44.9737 45.1456 44.2155 44.0285C43.4559 42.8946 43.0226 41.6347 42.9154 40.2489C42.7463 38.0615 43.3454 36.1424 44.7127 34.4913ZM61.6459 30.7633C64.573 30.3858 66.4456 30.1654 67.2638 30.1022C68.6831 29.9924 69.6432 30.0274 70.1442 30.207C70.6619 30.3853 70.9433 30.7667 70.9885 31.3511C71.0053 31.5682 71.0003 31.8289 70.9734 32.1333C70.9441 32.6227 70.722 33.0094 70.3073 33.2934C69.8925 33.5775 69.007 33.9651 67.6509 34.4562C67.4056 34.5424 67.3378 35.2951 67.4475 36.7144C67.5288 37.7663 67.6578 38.9993 67.8343 40.4134C68.0405 42.2115 68.1604 43.3277 68.194 43.7618C68.3179 45.3647 68.2573 46.4276 68.0122 46.9505C67.7658 47.4566 67.2335 47.7414 66.4153 47.8046C66.1315 47.8266 65.8431 47.7901 65.5502 47.6951C65.2573 47.6002 65.046 47.4738 64.9162 47.3158C64.6733 46.9987 64.2339 44.8994 63.5978 41.0181L62.6746 35.2693L61.0601 35.243C60.1353 35.2305 59.3375 35.015 58.6669 34.5966C58.013 34.1768 57.6634 33.6747 57.6182 33.0903C57.5679 32.4392 57.8316 31.94 58.4095 31.593C59.004 31.2447 60.0829 30.9681 61.6459 30.7633Z" fill="white"/>
</svg>
