<svg width="605" height="120" viewBox="0 0 605 120" fill="none" xmlns="http://www.w3.org/2000/svg">
<rect x="323.897" y="34.6304" width="244.451" height="77.4094" rx="38.7047" fill="#96CC1C"/>
<path d="M114.762 98.6304V52.087H124.54V98.6304H114.762ZM140.83 81.4862C140.83 87.353 144.024 93.0243 152.498 93.0243C160.907 93.0243 164.101 87.353 164.101 81.4862C164.101 75.7498 160.907 70.0785 152.498 70.0785C144.024 70.0785 140.83 75.7498 140.83 81.4862ZM172.706 51.3047V98.6304H163.71V93.8717H163.58C162.928 95.9577 157.518 99.9341 150.347 99.9341C137.179 99.9341 131.443 90.3516 131.443 81.4862C131.443 72.7512 137.179 63.1687 150.347 63.1687C155.757 63.1687 160.907 64.8636 163.58 69.0355H163.71V51.3047H172.706ZM187.874 81.3559C187.874 87.353 191.133 93.0243 199.868 93.0243C208.603 93.0243 211.862 87.353 211.862 81.3559C211.862 75.3587 208.603 69.6874 199.868 69.6874C191.133 69.6874 187.874 75.3587 187.874 81.3559ZM178.487 81.3559C178.487 71.8386 184.419 62.7776 199.868 62.7776C215.317 62.7776 221.249 71.8386 221.249 81.3559C221.249 90.8731 215.317 99.9341 199.868 99.9341C184.419 99.9341 178.487 90.8731 178.487 81.3559ZM227.291 98.6304V51.3047H236.287V98.6304H227.291ZM246.574 61.3435V52.087H256.743V59.1271C256.743 65.9718 253.94 71.2519 246.574 72.2297V68.3837C250.55 67.0799 251.137 65.3199 251.398 61.3435H246.574ZM262.574 87.8094H272.352C272.613 93.0243 278.61 93.8065 281.87 93.8065C286.367 93.8065 291.256 92.6332 291.256 89.3738C291.256 86.7012 289.757 85.7886 280.044 84.4848C269.354 83.0507 263.748 81.8122 263.748 73.9246C263.748 64.0813 275.221 62.7776 281.022 62.7776C286.367 62.7776 299.209 63.5598 299.731 74.6416H290.344C289.627 69.4919 283.63 68.9052 280.566 68.9052C275.481 68.9052 272.743 71.0563 272.743 72.8816C272.743 75.6846 273.591 76.1409 282.261 77.3795C293.603 79.0091 301.035 80.1173 301.035 88.1353C301.035 96.9355 292.625 99.9341 281.935 99.9341C274.569 99.9341 262.9 98.3696 262.574 87.8094Z" fill="black"/>
<path d="M363.325 59.3879V73.5986H379.035C384.576 73.5986 387.574 72.0993 387.574 66.5584C387.574 60.822 383.533 59.3879 379.752 59.3879H363.325ZM353.547 98.6304V52.087H382.229C393.636 52.087 397.352 59.062 397.352 66.5584C397.352 73.6638 392.854 80.8995 382.359 80.8995H363.325V98.6304H353.547ZM404.283 98.6304V52.087H414.061V98.6304H404.283ZM472.396 69.2963H461.836C460.858 62.2561 455.057 58.0842 446.843 58.0842C437.847 58.0842 431.133 64.0813 431.133 76.2061C431.133 85.9189 437.847 92.6332 447.495 92.6332C457.664 92.6332 461.054 85.7234 461.836 80.8344H472.396C471.028 90.0909 464.965 99.9341 445.8 99.9341C428.982 99.9341 420.964 88.4612 420.964 75.3587C420.964 62.2561 428.656 50.7832 446.974 50.7832C463.01 50.7832 471.353 59.2575 472.396 69.2963ZM480.292 98.6304V52.087H490.07V73.6638L513.863 52.087H527.291L505.584 70.9911L528.66 98.6304H515.427L497.957 77.1839L490.07 84.1589V98.6304H480.292ZM535.077 64.5377V52.087H545.246V64.5377L543.421 85.0063H536.902L535.077 64.5377ZM535.077 98.6304V89.3738H545.246V98.6304H535.077Z" fill="white"/>
<g clip-path="url(#clip0_444_5557)">
<path d="M52.7269 112.868C74.4846 109.187 89.1385 88.5643 85.4573 66.8066C81.776 45.0489 61.1536 30.395 39.3959 34.0762C17.6381 37.7575 2.98424 58.3798 6.66549 80.1376C10.3467 101.895 30.9691 116.549 52.7269 112.868Z" fill="#EC1C24"/>
<path d="M68.4849 79.2127L50.3299 97.7377L26.4643 85.9113C21.9685 83.6306 18.4944 79.6153 17.2566 74.7285C16.2069 70.4674 16.3017 65.6839 18.9979 62.1864C25.439 53.6166 35.7989 56.549 44.2064 62.0312C49.7057 55.1825 56.4184 48.7039 65.4481 52.519C68.6358 53.8702 70.6286 56.9032 72.0484 59.9509C75.0356 66.4323 73.4555 74.0974 68.4849 79.2127Z" fill="white"/>
</g>
<g clip-path="url(#clip1_444_5557)">
<path d="M560.022 65.0022C575.676 69.596 592.089 60.6306 596.683 44.9774C601.276 29.3243 592.311 12.911 576.658 8.31724C561.005 3.72348 544.591 12.6889 539.998 28.342C535.404 43.9951 544.369 60.4085 560.022 65.0022Z" fill="#FFE522"/>
<path d="M563.845 54.0981L562.698 53.7613C555.067 51.5219 550.689 43.5071 552.929 35.8765L581.73 44.3289C579.491 51.9596 571.476 56.3374 563.845 54.0981Z" fill="white"/>
<path d="M565.571 31.236L554.644 35.1331L547.417 25.7838C546.066 24.0165 545.434 21.7122 545.902 19.4815C546.326 17.6119 547.276 15.6474 549.024 14.7893C553.277 12.6104 556.893 15.7902 559.19 19.6423C562.742 17.9429 566.726 16.6819 569.57 19.9466C570.596 21.1202 570.806 22.7398 570.746 24.2178C570.674 27.4369 568.56 30.1815 565.571 31.236Z" fill="#EC1C24"/>
<path d="M593.109 39.3171L582.182 43.2142L574.955 33.8649C573.605 32.0975 572.972 29.7932 573.44 27.5625C573.864 25.6929 574.814 23.7285 576.562 22.8704C580.815 20.6914 584.431 23.8712 586.728 27.7234C590.28 26.024 594.265 24.763 597.108 28.0276C598.134 29.2013 598.344 30.8208 598.284 32.2988C598.212 35.518 596.098 38.2625 593.109 39.3171Z" fill="#EC1C24"/>
</g>
<defs>
<clipPath id="clip0_444_5557">
<rect width="79.8305" height="79.8305" fill="white" transform="translate(0 40.7417) rotate(-9.60307)"/>
</clipPath>
<clipPath id="clip1_444_5557">
<rect width="59.0756" height="59.0756" fill="white" transform="translate(548.314) rotate(16.3555)"/>
</clipPath>
</defs>
</svg>
