<svg width="52" height="52" viewBox="0 0 52 52" fill="none" xmlns="http://www.w3.org/2000/svg">
<g clip-path="url(#clip0_218_2193)">
<path d="M44.3843 44.3836C54.5378 34.2301 54.5378 17.768 44.3843 7.61443C34.2307 -2.53911 17.7686 -2.53911 7.61507 7.61443C-2.53847 17.768 -2.53847 34.2301 7.61507 44.3836C17.7686 54.5372 34.2307 54.5372 44.3843 44.3836Z" fill="#FF8000"/>
<path d="M16.7128 20.7273L9.5625 22.7886L14.5144 39.9664L21.6647 37.9052L16.7128 20.7273Z" fill="white"/>
<path d="M40.3782 16.4243C39.7853 14.2304 37.5618 12.9556 35.368 13.5189L34.3304 13.7857V13.7561L34.1525 13.8154C33.8857 13.9043 33.6188 13.9933 33.352 14.1119L27.7785 16.3057C27.9563 13.1928 26.3258 9.36842 23.1833 8.62725C22.7089 8.50867 22.2049 8.83478 22.0863 9.30912L20.2186 17.5212L17.9951 19.5075L19.3589 24.6067L22.8571 37.7105L38.8959 33.4117C39.0738 33.3821 39.222 33.3525 39.3999 33.3228L40.5858 32.9967C42.7796 32.4038 44.0544 30.1803 43.4911 27.9864C43.2243 26.9488 42.5721 26.1187 41.7123 25.5851C42.1867 24.6957 42.3349 23.658 42.0384 22.6204C41.7123 21.3456 40.7933 20.3969 39.6667 19.9226C40.4079 19.0035 40.734 17.6991 40.3782 16.4243Z" fill="white"/>
</g>
<defs>
<clipPath id="clip0_218_2193">
<rect width="52" height="52" fill="white"/>
</clipPath>
</defs>
</svg>
