<svg width="22" height="21" viewBox="0 0 22 21" fill="none" xmlns="http://www.w3.org/2000/svg">
<path d="M10.9999 0C17.0656 0 22 4.00445 22 8.92661C22 10.8966 21.2364 12.6706 19.6422 14.4188C17.3345 17.0751 12.174 20.3105 10.9999 20.8052C9.85893 21.2861 9.9907 20.5345 10.0429 20.2367C10.0444 20.2282 10.0458 20.22 10.0472 20.2122C10.075 20.0469 10.2041 19.2707 10.2041 19.2707C10.2412 18.9898 10.2796 18.5542 10.1686 18.276C10.0453 17.9698 9.55774 17.8108 9.19947 17.7337C3.91335 17.0348 0 13.3393 0 8.92661C0 4.00445 4.93502 0 10.9999 0ZM6.90509 10.5686H4.8086V6.76219C4.8086 6.64389 4.71266 6.54794 4.59457 6.54794H3.82278C3.70448 6.54794 3.60853 6.64389 3.60853 6.76219V11.5549C3.60853 11.6124 3.63152 11.6645 3.66842 11.7029L3.6697 11.7044L3.67137 11.7061L3.67454 11.709C3.71313 11.7461 3.765 11.7689 3.82257 11.7689H6.90509C7.02338 11.7689 7.11891 11.6727 7.11891 11.5544V10.7829C7.11891 10.6646 7.02338 10.5686 6.90509 10.5686ZM7.99341 6.54807C7.87511 6.54807 7.77895 6.64401 7.77895 6.76189V11.555C7.77895 11.6731 7.87511 11.7688 7.99341 11.7688H8.76499C8.88329 11.7688 8.97923 11.6731 8.97923 11.555V6.76189C8.97923 6.64401 8.88329 6.54807 8.76499 6.54807H7.99341ZM13.3042 6.54807C13.1859 6.54807 13.0899 6.64401 13.0899 6.76189V9.6095L10.8935 6.64317C10.8884 6.63558 10.8827 6.62841 10.8768 6.62145L10.8754 6.62018C10.8711 6.61533 10.8669 6.61112 10.8625 6.6069L10.8585 6.60331C10.8549 6.59994 10.8511 6.59678 10.8471 6.59382C10.8459 6.59259 10.8445 6.59158 10.8431 6.59055L10.8416 6.5894L10.8345 6.58445L10.8305 6.58181C10.8283 6.58033 10.8262 6.57906 10.8239 6.57801C10.8201 6.57569 10.8163 6.57337 10.8125 6.57147L10.81 6.57023L10.8058 6.56831C10.8018 6.56641 10.7978 6.56451 10.7935 6.56304L10.7866 6.56051C10.7824 6.55903 10.7782 6.55756 10.7737 6.5565L10.7699 6.55539L10.7663 6.55439L10.7541 6.55165L10.745 6.5506L10.7419 6.55003L10.7365 6.54941L10.7337 6.54912L10.7263 6.54865L10.7227 6.54849L10.7151 6.54807H9.94374C9.82544 6.54807 9.72928 6.64401 9.72928 6.76189V11.555C9.72928 11.6731 9.82544 11.7688 9.94374 11.7688H10.7151C10.8336 11.7688 10.9296 11.6731 10.9296 11.555V8.70823L13.1287 11.6784C13.1439 11.6999 13.1627 11.7174 13.1831 11.7313L13.1853 11.733L13.1985 11.741C13.2006 11.7422 13.2025 11.7431 13.2047 11.7441C13.2078 11.746 13.2114 11.7477 13.2148 11.7492L13.2253 11.7536L13.2316 11.756C13.2367 11.7579 13.2413 11.7593 13.2462 11.7608C13.2472 11.7608 13.2483 11.7612 13.2494 11.7614C13.2669 11.7661 13.2852 11.7688 13.3042 11.7688H14.0758C14.1943 11.7688 14.29 11.6731 14.29 11.555V6.76189C14.29 6.64401 14.1943 6.54807 14.0758 6.54807H13.3042ZM18.5505 7.53398V6.7624C18.5505 6.6441 18.455 6.54794 18.3367 6.54794H15.254C15.1962 6.54794 15.1441 6.57114 15.1055 6.60846L15.1044 6.60942L15.103 6.61078L15.0996 6.61458C15.0629 6.65296 15.0401 6.70483 15.0401 6.76219V11.5549C15.0401 11.6124 15.0631 11.6645 15.1 11.7029C15.1009 11.704 15.1019 11.7052 15.103 11.7061C15.1038 11.7071 15.1051 11.7082 15.1061 11.709C15.1445 11.7459 15.1966 11.7689 15.254 11.7689H18.3367C18.455 11.7689 18.5505 11.6727 18.5505 11.5547V10.7829C18.5505 10.6648 18.455 10.5686 18.3367 10.5686H16.2404V9.75846H18.3367C18.455 9.75846 18.5505 9.66251 18.5505 9.54421V8.77263C18.5505 8.65434 18.455 8.55818 18.3367 8.55818H16.2404V7.74822H18.3367C18.455 7.74822 18.5505 7.65249 18.5505 7.53398Z" fill="black"/>
</svg>
