<?xml version="1.0" encoding="utf-8"?>
<!-- Generator: Adobe Illustrator 28.2.0, SVG Export Plug-In . SVG Version: 6.00 Build 0)  -->
<svg version="1.1" id="Layer_1" xmlns="http://www.w3.org/2000/svg" xmlns:xlink="http://www.w3.org/1999/xlink" x="0px" y="0px"
	 viewBox="0 0 895 165" enable-background="new 0 0 895 165" xml:space="preserve">
<g>
	<g>
		<path fill="#F4F4F4" d="M895,98.3c0,37-32,66.9-71.8,66.9l-751.4-0.2C32.2,164.9,0,135.1,0,98.1V66.4c0-37,32-66.9,71.8-66.9
			l751.4,0.2c39.6,0,71.8,29.9,71.8,66.9V98.3z"/>
	</g>
	<g>
		<path fill="#F05A2A" d="M508.6,133.1L530,30.4h39.2l-21.4,102.7H508.6z M559.7,133.1L581,30.4h39.2l-21.4,102.7H559.7z"/>
		<path fill="#F05A2A" d="M712.6,126c-7.5,5.7-17.4,8.5-29.3,8.5c-8.3,0-15.4-1.8-21.4-5.3c-4.2-2.6-7.1-5.5-9.1-8.7l-2.8,12.9
			h-39.2l21.4-102.7h39.2l-13.7,64.1c-0.8,3.8,0.2,7.1,2.8,10.1c2.6,3,6.5,4.4,12.1,4.4c9.3,0,14.6-3.8,16.2-11.3l14.2-67.3h39.2
			l-15.4,72.8C724.9,112.9,720.1,120.4,712.6,126"/>
		<path fill="#F05A2A" d="M803.6,133.3L817.4,66c1.6-7.5-2.4-11.3-11.7-11.3c-5.3,0-10.1,1.4-13.7,4.4c-3.8,3-5.9,6.3-6.7,10.1
			l-13.3,64.1H733l21.4-102.7h39.2l-2.8,12.9c9.1-9.5,21-14,36.2-14c21,0,31.7,8.1,31.7,24.1c0,1.2,0,2.4-0.2,3.6
			c0,1.2-0.2,2.2-0.4,3.6l-15,72.8L803.6,133.3z"/>
	</g>
	<path fill="#F05A2A" d="M505.3,126.2c-1.4,4-4.9,6.9-7.9,6.9H59.7c-3,0-4.2-3.2-2.8-6.9c1.4-4,4.9-6.9,7.9-6.9l437.8,0.2
		C505.5,119.2,506.7,122.2,505.3,126.2"/>
	<g>
		<path fill-rule="evenodd" clip-rule="evenodd" fill="#414142" d="M357.3,90.2c0,1.4-0.2,2.4,0,3.6c0.2,2,1.8,3.6,3.8,3.8
			c0.6,0,1.4,0.2,2,0.2c9.9,0,20,0,29.9,0c4.4,0,5.9-1.6,5.9-5.9c0-7.7,0-15.2,0-22.9c0-3.6-2-5.7-5.5-5.7c-10.3,0-20.4,0-30.7,0
			c-3.4,0-5.3,2-5.3,5.5c0,3.8,0.4,3.4-3.4,3.4c-4,0-8.1,0-12.1,0c-1.6,0-1.8-0.6-2-2c-0.6-12.7,8.3-21.2,17.8-23.1
			c1.4-0.2,3-0.4,4.4-0.4c10.7,0,21.4,0,32,0c12.3,0,22.2,10.1,22.2,22.4c0,7.7,0,15.2,0,22.9c0,11.7-7.3,20.6-18.8,22.6
			c-1.2,0.2-2.4,0.2-3.4,0.2c-10.7,0-21.2,0-31.9,0c-10.5,0-19.4-7.3-21.8-17.4c-0.2-1.2-0.4-2.2-0.4-3.4c0-5.7,0-11.5,0-17.2
			c0-1.4,0.6-1.8,1.8-1.8c12.3,0,24.5,0,36.8,0c1.2,0,1.8,0.4,1.8,1.8c0,4,0,8.1,0,12.1c0,1.4-0.4,1.8-1.8,1.6
			C371.3,90.2,364.4,90.2,357.3,90.2"/>
		<path fill-rule="evenodd" clip-rule="evenodd" fill="#414142" d="M433.3,89.6c2.4,0,4.7,0,7.3,0c1,0,1.6,0.4,1.6,1.4
			c0,0.4,0,1,0,1.4c0,2.8,1.6,4.7,4.2,5.3c2.6,0.8,5.3,1.4,8.1,1.4c6.3,0.2,12.9,0,19.2-0.2c2.2,0,4.4-0.8,6.3-1.6
			c2.4-1,3.4-3.4,3-5.7c-0.4-2.2-2-3.4-4.7-3.6c-5.1-0.4-10.3-0.6-15.4-0.8c-5.5-0.2-11.1-0.4-16.8-0.8c-5.9-0.4-11.5-2-16-6.3
			c-6.9-6.5-5.7-20,2.8-25.9c4.6-3.2,9.7-4.7,15.2-5.5c9.1-1.4,18.4-1.4,27.5-0.2c7.1,0.8,13.8,3.4,18.8,8.9
			c3.2,3.6,4.4,7.9,4.7,12.7c0,0.4-0.6,1-1,1c-5.1,0-10.1,0-15.2,0c-0.4,0-1.2-0.8-1.2-1.4c-0.2-3.8-3-5.1-6.1-5.9
			c-5.7-1.2-11.5-1.2-17.2-1c-3.6,0.2-7.1,0.8-10.5,1.2c-1,0.2-2.2,0.8-3,1.2c-1.4,0.8-2.2,2.6-1.8,4c0.4,1.6,1.8,1.6,3,1.8
			c4.2,0.4,8.3,0.8,12.5,1c7.7,0.6,15.4,1,23.1,1.6c4.9,0.4,9.7,2,13.5,5.3c3,2.8,4.6,6.1,5.1,10.1c0.4,3.4,0.4,6.7-0.6,10.1
			c-1.8,5.7-5.9,9.3-11.3,11.7c-4.6,2-9.5,3.2-14.4,3.4c-5.7,0.4-11.7,0.4-17.6,0.4c-6.9-0.2-13.8-1-20.2-4.6
			c-7.1-4-11.1-10.1-11.5-18.4c0-1.4,0.4-2.2,2-2C428.7,89.8,431.1,89.6,433.3,89.6"/>
		<path fill-rule="evenodd" clip-rule="evenodd" fill="#414142" d="M198,58.1c0-11.3,0-22.6,0-33.8c0-2.4,0-2.6,2.4-2.6
			c4.4,0,8.5,0,12.9,0c2,0,2.2,0.2,2.2,2.2c0,11.9,0,23.9,0,35.8c0,10.7-0.2,21.2,0,31.9c0.2,12.1-8.3,20-17.2,22.2
			c-1.6,0.4-3.4,0.6-5.1,0.6c-10.5,0-21.2,0-31.7,0c-10.7,0-19.8-7.5-22-17.8c-0.4-1.6-0.4-3.4-0.4-4.9c0-14.2,0-28.5,0-42.9
			c0-2.4,0-2.4,2.6-2.4c4.2,0,8.5,0,12.7,0c2,0,2.2,0,2.2,2.2c0,14.4,0,29.1,0,43.5c0,3.6,2.4,5.7,5.7,5.7c10.1-0.2,20.2,0,30.1,0
			c4,0,5.5-1.6,5.5-5.5C198,80.7,198,69.4,198,58.1"/>
		<path fill-rule="evenodd" clip-rule="evenodd" fill="#414142" d="M330.2,58.9c0,11.1,0,22.2,0,33.2c0,12.3-9.7,22.2-22,22.4
			c-10.7,0-21.4,0-32,0c-11.1,0-20.6-8.3-22-19.4c0-0.6,0-1.2,0-1.8c0-15,0-29.9,0-44.9c0-2.2,0-2.2,2-2.2c4.4,0,8.7,0,13.3,0
			c1.4,0,2,0.4,2,2c0,14.6,0,29.1,0,43.7c0,4,1.8,5.7,5.7,5.7c10.1,0,20.2,0,30.3,0c3.6,0,5.7-2,5.7-5.7c0-22.6,0-45.1,0-67.7
			c0-2.6,0-2.6,2.4-2.6c4.4,0,8.7,0,13.1,0c1.6,0,2,0.4,2,2C330.2,35.6,330.2,47.2,330.2,58.9"/>
		<path fill-rule="evenodd" clip-rule="evenodd" fill="#414142" d="M226.1,80.3c0-10.7,0-21.4,0-32c0-1.6,0.4-2.2,2-2
			c4.6,0.2,8.9,0,13.5,0c1.4,0,1.8,0.6,1.8,1.8c0,21.6,0,42.9,0,64.5c0,1.4-0.4,1.8-1.8,1.8c-4.6,0-9.3,0-13.8,0
			c-1.4,0-1.8-0.4-1.8-1.8C226.1,101.8,226.1,91.1,226.1,80.3"/>
		<path fill-rule="evenodd" clip-rule="evenodd" fill="#414142" d="M112.8,133.5c-2.6,0-4.7,0-7.1,0c-1.2,0-1.6-0.4-1.6-1.6
			c0-4,0-7.9,0-11.7c0-1.2,0.4-1.6,1.6-1.6c7.3,0,14.6,0,21.8,0c1.2,0,1.6,0.4,1.6,1.6c0,8.7,0,17.2,0,25.9c0,1.2-0.4,1.6-1.6,1.6
			c-4.4,0-8.7,0-13.3,0c-1.4,0-1.6-0.6-1.6-1.6c0-3.4,0-6.9,0-10.3v-2.4H112.8z"/>
		<path fill-rule="evenodd" clip-rule="evenodd" fill="#414142" d="M462.7,41.9c2.4-3,4.7-5.7,6.9-8.5c5.3-6.5,10.7-13.3,16-19.8
			c0.4-0.6,1.2-1,1.8-1c5.7,0,11.5,0,17,0c0.2,0,0.4,0,0.8,0.2c-0.4,0.6-0.6,1-1,1.4c-7.1,8.9-14.4,17.8-21.6,26.7
			c-0.8,1-1.6,1.2-2.6,1.2c-5.1,0-10.3,0-15.6,0C464.1,41.9,463.5,41.9,462.7,41.9"/>
		<path fill-rule="evenodd" clip-rule="evenodd" fill="#414142" d="M137.1,48.4c0.4-0.4,0.8-1,1-1.6c-0.6-0.2-1.2-0.6-1.8-0.6
			c-7.9,0-15.6,0-23.5,0c-0.6,0-1.4,0.2-2,0.6c-4.6,3.4-8.9,6.7-13.3,10.1c-0.2,0.2-0.2,0.4-0.4,0.4v16.4c0.2,0.2,0.6,0.2,1,0.2
			c2.2,0,4.4,0,6.5,0c4,0,6.1,1.8,6.5,5.5c0.4,4.2,0.2,8.3,0.4,12.3c0.2,4-2.2,5.7-5.7,5.5c-7.5,0-15.2,0-22.8,0c-1.8,0-3.6,0-5.3,0
			c-1.6,0-2.2-0.8-2.4-2.4c0-1.2,0-2.4,0-3.6c0-1,0.2-1.8,1.2-2.4c4.4-3.2,8.9-6.1,13.1-9.7c10.1-8.3,8.5-25.3-3-31.5
			c-3.4-1.8-6.9-1.8-10.7-2c-4.2-0.2-7.9,0.2-10.9,3.6c-0.6,0.6-1.2,0.6-2,0c-1.8-1.4-3.6-2.6-5.1-4c-1.2-1-1.8-0.8-2.8,0.4
			c-2.8,3.4-5.5,6.5-8.5,9.7c-1,1-1,1.8,0.2,2.6c5.1,3.8,10.3,7.7,15.4,11.5c2.2,1.6,2.2,1.6,4.2,0c2.8-2.2,5.7-4.2,8.5-6.3
			c1.2-0.8,3.2-0.8,3.8,0c0.6,1,0.2,2.6-1.2,3.6C77.4,67,77.4,67,77.2,67c-5.9,4.4-11.9,8.9-18,13.3c-1,0.8-1.4,1.4-1.4,2.6
			c0,4.7,0,9.7,0.2,14.4c0.2,4.2,1.6,8.1,4.6,11.3c3.8,4,8.5,5.3,13.8,5.3c9.7,0,19.4,0,29.3,0c1.8,0,3.4-0.2,5.1-0.4
			c8.7-1.6,16.2-8.9,17.2-17.8c0.6-6.3,0.4-12.7,0-19c-0.6-6.3-4.2-11.1-9.9-13.8c-0.2,0-0.2-0.2-0.4-0.4c0.4-0.4,0.6-0.6,1-0.8
			C125.2,57.5,131.2,53,137.1,48.4"/>
	</g>
	<path fill="#FFFFFF" d="M274,125.4c0.2,0.2,0.4,0.6,0.4,0.8c0,0,0,0,0,0.2c0,0,0,0,0,0.2l-0.6,3H273l0.6-3c0,0,0,0,0-0.2
		s-0.2-0.4-0.4-0.6c-0.2-0.2-0.6-0.2-0.8-0.2c-0.4,0-0.8,0-1,0.2c-0.4,0.2-0.6,0.4-0.6,0.6v0.4h1.6l-0.2,0.6h-1.6l-0.4,2h-0.8l0.6-3
		c0.2-0.4,0.4-0.8,1-1c0.4-0.2,1-0.4,1.6-0.4c0.4,0,0.6,0,1,0.2l0.6-0.6l0.6,0.4L274,125.4z"/>
	<path fill="#FFFFFF" d="M273.6,130.5c0,0.2-0.2,0.4-0.4,0.4c-0.2,0.2-0.6,0.2-0.8,0.2c-0.4,0-0.8-0.2-1-0.4v-0.4H271v-0.6h1.2
		l-0.2,0.8h0.2c0.2,0,0.4,0,0.4-0.2l0.2-0.6h0.8L273.6,130.5z"/>
	<path fill="#FFFFFF" d="M278.9,129.3h-0.8v-0.4c-0.6,0.4-1.2,0.6-1.8,0.6c-0.6,0-1-0.2-1.2-0.4c-0.4-0.2-0.4-0.6-0.4-1v-0.2v-0.2
		l0.6-3h0.8l-0.6,3c0,0,0,0,0,0.2l0,0c0,0.2,0,0.4,0.2,0.6s0.4,0.2,0.8,0.2s0.8-0.2,1.2-0.2c0.4-0.2,0.6-0.4,0.6-0.8l0.6-3h0.8
		L278.9,129.3z"/>
	<path fill="#FFFFFF" d="M284.3,128.7c-0.6,0.4-1.4,0.8-2.4,0.8c-0.6,0-1.2-0.2-1.6-0.4c-0.4-0.2-0.6-0.6-0.6-1c0-0.2,0-0.2,0-0.4
		c0-0.2,0.2-0.2,0.2-0.4c0.2-0.2,0.2-0.2,0.4-0.4c0.2-0.2,0.2-0.2,0.4-0.2c-0.2,0-0.4-0.2-0.6-0.4c-0.2-0.2-0.2-0.4-0.2-0.6
		s0-0.2,0.2-0.4c0.2-0.2,0.2-0.2,0.4-0.4c0.2,0,0.4-0.2,0.6-0.2s0.4,0,0.6,0s0.6,0,0.8,0.2l-0.2,0.6c-0.4,0-0.6-0.2-0.8-0.2
		c-0.6,0-0.8,0.2-1,0.4c0,0.4,0.2,0.4,1,0.6h0.6l-0.2,0.6h-0.6c-0.4,0-0.6,0-1,0.2s-0.4,0.4-0.4,0.8c0,0.2,0.2,0.4,0.4,0.6
		c0.2,0.2,0.6,0.2,1,0.2s1-0.2,1.4-0.4l0.8-3.6h0.8L284.3,128.7z"/>
	<path fill="#FFFFFF" d="M285.5,124h-0.4c-0.2,0-0.4,0-0.4,0.2v0.2h-0.8v-0.2c0.2-0.4,0.4-0.6,1-0.6h0.6L285.5,124z"/>
	<path fill="#FFFFFF" d="M289.8,127c-0.2,0.8-0.6,1.4-1.2,1.8c-0.8,0.4-1.6,0.6-2.6,0.6l-0.2-2.2h-0.6l0.2-0.6h1.2l0.2,2.2
		c0.6,0,1-0.2,1.4-0.6c0.4-0.4,0.6-0.8,0.8-1.2c0-0.2,0-0.2,0-0.4c0-0.4-0.2-0.6-0.4-1c-0.2-0.2-0.6-0.4-1.2-0.4s-1.4,0.2-2,0.6
		l-0.6-0.4c0.8-0.6,1.8-0.8,2.6-0.8c0.6,0,1.2,0.2,1.6,0.4c0.4,0.4,0.6,0.8,0.6,1.2C289.8,126.8,289.8,127,289.8,127"/>
	<path fill="#FFFFFF" d="M290.6,123.8c0,0.2-0.2,0.4-0.4,0.4c-0.2,0.2-0.4,0.2-0.6,0.2s-0.4,0-0.4-0.2c-0.2-0.2-0.2-0.2-0.2-0.4
		c0-0.2,0.2-0.4,0.2-0.4c0.2-0.2,0.4-0.2,0.6-0.2s0.4,0,0.6,0.2C290.6,123.4,290.6,123.6,290.6,123.8 M290.2,123.8
		c0-0.2,0-0.2-0.2-0.2s-0.4,0-0.4,0.2c0,0.2,0,0.2,0.2,0.2C290,124,290.2,124,290.2,123.8"/>
	<path fill="#FFFFFF" d="M292.8,129.3H292l0.6-2.8c0,0,0,0,0-0.2v-0.2c0-0.6-0.4-0.8-1-0.8c-0.4,0-0.8,0.2-1.2,0.4l0.2-0.8
		c0.4-0.2,0.8-0.2,1.2-0.2c0.6,0,1,0.2,1.2,0.4c0.2,0.2,0.4,0.6,0.4,1c0,0.2,0,0.2,0,0.4L292.8,129.3z"/>
	<path fill="#FFFFFF" d="M297.3,125.8c0.8,0.2,1.2,0.4,1.2,1v0.2c0,0,0,0,0,0.2l-0.4,2.4h-0.8l0.4-2.2c0,0,0,0,0-0.2
		s-0.2-0.4-0.4-0.6c-0.2-0.2-0.6-0.2-0.8-0.2l-1.8,1l-0.4,2.2h-0.8l1-4.4h0.8l-0.4,1.4l3-1.6l0.8,0.2L297.3,125.8z"/>
	<path fill="#FFFFFF" d="M303.1,129.3h-0.8v-0.4c-0.6,0.4-1,0.6-1.8,0.6c-0.6,0-1-0.2-1.2-0.4c-0.4-0.2-0.4-0.6-0.4-1v-0.2v-0.2
		l0.6-3h0.8l-0.6,3c0,0,0,0,0,0.2l0,0c0,0.2,0,0.4,0.2,0.6s0.4,0.2,0.8,0.2s0.8-0.2,1.2-0.2c0.4-0.2,0.6-0.4,0.6-0.8l0.6-3h0.8
		L303.1,129.3z"/>
	<polygon fill="#FFFFFF" points="304.1,124.4 303.5,124.4 303.7,123.2 304.5,123.2 	"/>
	<path fill="#FFFFFF" d="M306.8,129.3H306l0.6-2.8c0,0,0,0,0-0.2v-0.2c0-0.6-0.4-0.8-1-0.8c-0.4,0-0.8,0.2-1.2,0.4l0.2-0.8
		c0.4-0.2,0.8-0.2,1.2-0.2c0.6,0,1,0.2,1.2,0.4c0.2,0.2,0.4,0.6,0.4,1c0,0.2,0,0.2,0,0.4L306.8,129.3z"/>
	<path fill="#FFFFFF" d="M312,128.7c-0.6,0.4-1.4,0.8-2.4,0.8c-0.8,0-1.2-0.2-1.6-0.4c-0.4-0.2-0.6-0.6-0.6-1c0-0.2,0-0.2,0-0.4
		c0-0.2,0.2-0.2,0.2-0.4c0.2-0.2,0.2-0.2,0.4-0.4c0.2-0.2,0.4-0.2,0.4-0.2c-0.2,0-0.4-0.2-0.6-0.4c-0.2-0.2-0.2-0.4-0.2-0.6
		s0-0.2,0.2-0.4c0.2-0.2,0.2-0.2,0.4-0.4c0.2,0,0.4-0.2,0.6-0.2s0.4,0,0.6,0s0.6,0,0.8,0.2l-0.2,0.6c-0.4,0-0.6-0.2-0.8-0.2
		c-0.6,0-1,0.2-1,0.4c0,0.4,0.2,0.6,1,0.6h0.6l-0.2,0.6H309c-0.4,0-0.6,0-1,0.2s-0.4,0.4-0.4,0.8c0,0.2,0.2,0.4,0.4,0.6
		c0.2,0.2,0.6,0.2,1,0.2s1-0.2,1.4-0.4l0.8-3.6h0.8L312,128.7z"/>
	<path fill="#FFFFFF" d="M317.5,127.2c-0.2,0.6-0.4,1.2-1,1.6s-1.2,0.6-1.8,0.6c-0.4,0-1-0.2-1.2-0.4c-0.4-0.2-0.6-0.6-0.6-1h0.8
		c0.2,0.6,0.6,0.8,1.2,0.8s1-0.2,1.4-0.8c0.4-0.4,0.4-0.8,0.4-1.4c0-0.4,0-0.6-0.2-0.8c-0.2-0.2-0.6-0.4-1-0.4
		c-0.6,0-1.2,0.2-1.6,0.8h-0.8c0.2-0.4,0.6-0.8,1-1s1-0.4,1.4-0.4c0.6,0,1.2,0.2,1.4,0.6c0.4,0.4,0.4,0.8,0.4,1.2
		C317.5,126.8,317.5,127,317.5,127.2"/>
	<polygon fill="#FFFFFF" points="319.5,124.4 315.9,124.4 316.1,123.4 316.9,123.4 316.9,123.8 319.5,123.8 	"/>
	<path fill="#FFFFFF" d="M322.7,125.2l-0.2,0.2c0.2,0.2,0.4,0.4,0.4,0.6l-0.8,3.4h-0.8l0.4-1.8c0-0.2-0.2-0.4-0.6-0.6
		c-0.2-0.2-0.6-0.2-1-0.2s-0.8,0.2-1.2,0.4c-0.4,0.2-0.6,0.6-0.6,1c0,0.2,0,0.4,0.2,0.4c0.2,0.2,0.4,0.2,0.6,0.2s0.6,0,0.8-0.2
		l0.4,0.4c-0.4,0.2-0.8,0.4-1.4,0.4c-0.4,0-0.8-0.2-1-0.4c-0.2-0.2-0.4-0.6-0.4-0.8c0-0.6,0.2-1,0.8-1.4c0.6-0.4,1.2-0.6,1.8-0.6
		c0.6,0,1.2,0.2,1.6,0.4l0.2-0.6c0-0.2-0.2-0.4-0.4-0.4c-0.2-0.2-0.4-0.2-0.8-0.2c-0.8,0-1.4,0.2-1.6,0.6h-0.8
		c0.6-0.8,1.4-1.4,2.6-1.4c0.4,0,0.6,0,1,0.2l0.6-0.4l0.6,0.4C322.9,125,322.9,125,322.7,125.2"/>
	<path fill="#FFFFFF" d="M327.2,129.3h-0.8l0.6-3.4c-0.2-0.4-0.6-0.6-1.2-0.6s-1.2,0.2-1.6,0.8c-0.4,0.4-0.6,1-0.6,1.6
		c0,0.8,0.4,1,1,1c0.2,0,0.6-0.2,0.8-0.4l0.4,0.4c-0.4,0.4-0.8,0.6-1.4,0.6c-1.2,0-1.6-0.6-1.6-1.6c0-0.2,0-0.4,0-0.6
		c0.2-0.6,0.4-1.2,1-1.8c0.6-0.4,1.2-0.8,2-0.8c1,0,1.6,0.4,1.8,1L327.2,129.3z"/>
	<polygon fill="#FFFFFF" points="327,131.1 326.2,131.1 326.2,130.3 325.8,130.3 325.8,129.7 327.2,129.7 	"/>
	<path fill="#FFFFFF" d="M332.4,129.3h-0.8l0.6-3l0,0l0,0c0-0.2-0.2-0.4-0.4-0.6c-0.2-0.2-0.6-0.2-0.8-0.2c-0.6,0-1.2,0.2-1.6,0.6
		l-0.8,3.4h-0.8l0.8-3.6c0.6-0.6,1.4-1,2.4-1c0.6,0,1,0.2,1.4,0.4c0.4,0.2,0.6,0.6,0.6,1c0,0,0,0,0,0.2c0,0,0,0,0,0.2L332.4,129.3z"
		/>
	<polygon fill="#FFFFFF" points="333.5,124.4 332.8,124.4 333,123.2 333.7,123.2 	"/>
	<path fill="#FFFFFF" d="M338.7,127.2c-0.2,0.6-0.4,1.2-1,1.6s-1.2,0.6-2,0.6c-0.6,0-1.2-0.2-1.6-0.4c-0.4-0.4-0.6-0.8-0.6-1.4
		c0-0.2,0-0.4,0-0.4c0-0.2,0-0.2,0-0.2v-0.2h2l-0.2,0.6h-1.4c0,0,0,0,0,0.2c0,0,0,0,0,0.2c0,0.4,0.2,0.8,0.4,1
		c0.2,0.2,0.6,0.4,1.2,0.4c0.6,0,1-0.2,1.4-0.4c0.4-0.4,0.6-0.8,0.8-1.2c0-0.2,0-0.2,0-0.4c0-0.4-0.2-0.8-0.4-1
		c-0.2-0.2-0.6-0.4-1.2-0.4c-0.8,0-1.4,0.2-1.8,0.8h-0.8c0.6-1,1.6-1.4,2.8-1.4c0.6,0,1.2,0.2,1.6,0.6s0.6,0.8,0.6,1.4
		C338.7,126.8,338.7,127,338.7,127.2"/>
	<path fill="#FFFFFF" d="M344,125.2l-0.2,0.2c0.2,0.2,0.4,0.4,0.4,0.6l-0.8,3.4h-0.8l0.4-1.8c0-0.2-0.2-0.4-0.6-0.6
		c-0.2-0.2-0.6-0.2-1-0.2s-0.8,0.2-1.2,0.4c-0.4,0.2-0.6,0.6-0.6,1c0,0.2,0,0.4,0.2,0.4c0.2,0.2,0.4,0.2,0.6,0.2s0.6,0,0.8-0.2
		l0.4,0.4c-0.4,0.2-0.8,0.4-1.4,0.4c-0.4,0-0.8-0.2-1-0.4c-0.2-0.2-0.4-0.6-0.4-0.8c0-0.6,0.2-1,0.8-1.4c0.6-0.4,1.2-0.6,1.8-0.6
		c0.6,0,1.2,0.2,1.6,0.4l0.2-0.6c0-0.2-0.2-0.4-0.4-0.4c-0.2-0.2-0.4-0.2-0.8-0.2c-0.8,0-1.4,0.2-1.6,0.6h-0.8
		c0.6-0.8,1.4-1.4,2.6-1.4c0.4,0,0.6,0,1,0.2l0.6-0.4l0.6,0.4C344.2,125,344,125,344,125.2"/>
	<path fill="#FFFFFF" d="M348.2,126.2c0-0.4-0.6-0.6-1.2-0.6c-0.4,0-0.6,0-1,0.2c-0.2,0.2-0.4,0.2-0.4,0.4c0,0.4,0.4,0.6,1.4,0.6
		c1.2,0,1.8,0.4,1.8,1v0.2c0,0,0,0,0,0.2c0,0.4-0.4,0.8-0.8,1.2c-0.4,0.2-1,0.4-1.6,0.4s-1-0.2-1.4-0.4c-0.4-0.2-0.6-0.6-0.6-1
		c0-0.2,0-0.2,0-0.4h0.8c0,0,0,0,0,0.2v0.2c0,0.6,0.4,0.8,1.2,0.8c0.4,0,0.8,0,1-0.2c0.4-0.2,0.6-0.4,0.6-0.6c0-0.4-0.4-0.6-1.4-0.6
		c-1.2-0.2-2-0.4-2-1c0-0.4,0.2-0.8,0.8-1.2c0.4-0.2,1-0.4,1.6-0.4c0.2,0,0.6,0,0.8,0c0.2,0,0.4,0.2,0.6,0.2
		c0.2,0.2,0.4,0.2,0.4,0.4c0,0.2,0.2,0.4,0.2,0.6h-0.8V126.2z"/>
	<path fill="#FFFFFF" d="M350,124.4h-2.4V124c0-0.2,0-0.2-0.2-0.2h-0.2v-0.4h0.6c0.4,0,0.6,0.2,0.6,0.4v0.2h1.6V124.4z"/>
	<path fill="#FFFFFF" d="M351.9,129.3h-0.8l0.6-2.8v-0.2v-0.2c0-0.6-0.4-0.8-1-0.8c-0.4,0-0.8,0.2-1.2,0.4l0.2-0.8
		c0.4-0.2,0.8-0.2,1.2-0.2c0.6,0,1,0.2,1.2,0.4c0.2,0.2,0.4,0.6,0.4,1c0,0.2,0,0.2,0,0.4L351.9,129.3z"/>
	<path fill="#FFFFFF" d="M357.5,127.2c-0.2,0.8-0.6,1.2-1.2,1.6s-1.4,0.6-2.4,0.6h-0.2h-0.2l-0.4-3.6l0.8-0.2l0.4,3.2
		c0.6,0,1.2-0.2,1.6-0.4c0.4-0.4,0.8-0.8,0.8-1.2c0-0.2,0-0.2,0-0.4c0-0.8-0.6-1.2-1.8-1.2h-0.2h-0.2l0.2-0.6h0.2h0.2
		c1.6,0,2.4,0.6,2.4,1.8C357.5,126.8,357.5,127,357.5,127.2"/>
	<polygon fill="#FFFFFF" points="363.2,127.5 361.2,127.5 361.4,127.2 363.4,127.2 	"/>
	<path fill="#FFFFFF" d="M371.7,127.2c-0.2,0.8-0.6,1.2-1.2,1.6s-1.4,0.6-2.4,0.6H368h-0.2l-0.4-3.6l0.8-0.2l0.4,3.2
		c0.6,0,1.2-0.2,1.6-0.4c0.4-0.4,0.8-0.8,0.8-1.2c0-0.2,0-0.2,0-0.4c0-0.8-0.6-1.2-1.8-1.2H369h-0.2l0.2-0.6h0.2h0.2
		c1.6,0,2.4,0.6,2.4,1.8C371.9,126.8,371.7,127,371.7,127.2"/>
	<path fill="#FFFFFF" d="M374.7,129.3h-0.8l0.6-2.8v-0.2v-0.2c0-0.6-0.4-0.8-1-0.8c-0.4,0-0.8,0.2-1.2,0.4l0.2-0.8
		c0.4-0.2,0.8-0.2,1.2-0.2c0.6,0,1,0.2,1.2,0.4c0.2,0.2,0.4,0.6,0.4,1c0,0.2,0,0.2,0,0.4L374.7,129.3z"/>
	<path fill="#FFFFFF" d="M379.8,129.3H379v-0.4c-0.6,0.4-1,0.6-1.8,0.6c-0.6,0-1-0.2-1.2-0.4c-0.4-0.2-0.4-0.6-0.4-1v-0.2v-0.2
		l0.6-3h0.8l-0.6,3c0,0,0,0,0,0.2l0,0c0,0.2,0.2,0.4,0.2,0.6c0.2,0.2,0.4,0.2,0.8,0.2s0.8-0.2,1.2-0.2c0.4-0.2,0.6-0.4,0.6-0.8
		l0.6-3h0.8L379.8,129.3z"/>
	<path fill="#FFFFFF" d="M384.2,123h-1.8c-0.2,0-0.2,0-0.2,0s0,0.2,0.4,0.4c0.2,0.2,0.4,0.4,0.4,0.6c0,0,0,0,0,0.2c0,0,0,0,0,0.2
		l-1,4.9h-0.8l1-4.9c0,0,0,0,0-0.2s-0.2-0.4-0.4-0.6c-0.2-0.2-0.4-0.4-0.4-0.6s0.2-0.4,0.4-0.6c0.2-0.2,0.6-0.2,0.8-0.2h1.8
		L384.2,123z"/>
	<path fill="#FFFFFF" d="M387,129.3h-0.8l0.6-3c0,0,0,0,0-0.2s-0.2-0.4-0.4-0.6c-0.2-0.2-0.6-0.2-0.8-0.2c-0.2,0-0.4,0-0.6,0
		s-0.4,0.2-0.4,0.2c-0.2,0-0.2,0.2-0.4,0.2c-0.2,0.2-0.2,0.2-0.2,0.4v0.4h1.6l-0.2,0.6h-1.6l-0.4,2h-0.8l0.6-3
		c0-0.4,0.4-0.8,0.8-1.2c0.4-0.2,1-0.4,1.6-0.4s1,0.2,1.4,0.4c0.4,0.2,0.6,0.6,0.6,1v0.2c0,0,0,0,0,0.2L387,129.3z"/>
	<path fill="#FFFFFF" d="M391.7,126.2c0-0.4-0.6-0.6-1.2-0.6c-0.4,0-0.6,0-1,0.2c-0.2,0.2-0.4,0.2-0.4,0.4c0,0.4,0.4,0.6,1.4,0.6
		c1.2,0,1.8,0.4,1.8,1c0,0,0,0,0,0.2c0,0,0,0,0,0.2c0,0.4-0.4,0.8-0.8,1.2c-0.4,0.2-1,0.4-1.6,0.4s-1-0.2-1.4-0.4
		c-0.4-0.2-0.6-0.6-0.6-1c0-0.2,0-0.2,0-0.4h0.8c0,0,0,0,0,0.2c0,0,0,0,0,0.2c0,0.6,0.4,0.8,1.2,0.8c0.4,0,0.8,0,1-0.2
		c0.4-0.2,0.6-0.4,0.6-0.6c0-0.4-0.4-0.6-1.4-0.6c-1.2-0.2-2-0.4-2-1c0-0.4,0.2-0.8,0.8-1.2c0.4-0.2,1-0.4,1.6-0.4
		c0.2,0,0.6,0,0.8,0c0.2,0,0.4,0.2,0.6,0.2c0.2,0.2,0.4,0.2,0.4,0.4c0,0.2,0.2,0.4,0.2,0.6h-0.8V126.2z"/>
	<path fill="#FFFFFF" d="M397.3,127.2c-0.2,0.8-0.6,1.2-1.2,1.6s-1.4,0.6-2.4,0.6h-0.2h-0.2l-0.4-3.6l0.8-0.2l0.4,3.2
		c0.6,0,1.2-0.2,1.6-0.4c0.4-0.4,0.8-0.8,0.8-1.2c0-0.2,0-0.2,0-0.4c0-0.8-0.6-1.2-1.8-1.2h-0.2h-0.2l0.2-0.6h0.2h0.2
		c1.6,0,2.4,0.6,2.4,1.8C397.4,126.8,397.3,127,397.3,127.2"/>
	<path fill="#FFFFFF" d="M402.6,125.2l-0.2,0.2c0.2,0.2,0.4,0.4,0.4,0.6l-0.8,3.4h-0.8l0.4-1.8c0-0.2-0.2-0.4-0.6-0.6
		c-0.2-0.2-0.6-0.2-1-0.2s-0.8,0.2-1.2,0.4c-0.4,0.2-0.6,0.6-0.6,1c0,0.2,0,0.4,0.2,0.4c0.2,0.2,0.4,0.2,0.6,0.2s0.6,0,0.8-0.2
		l0.4,0.4c-0.4,0.2-0.8,0.4-1.4,0.4c-0.4,0-0.8-0.2-1-0.4c-0.2-0.2-0.4-0.6-0.4-0.8c0-0.6,0.2-1,0.8-1.4c0.6-0.4,1.2-0.6,1.8-0.6
		c0.6,0,1.2,0.2,1.6,0.4l0.2-0.6c0-0.2-0.2-0.4-0.4-0.4c-0.2-0.2-0.4-0.2-0.8-0.2c-0.8,0-1.4,0.2-1.8,0.6H398
		c0.6-0.8,1.4-1.4,2.6-1.4c0.4,0,0.6,0,1,0.2l0.6-0.4l0.6,0.4C402.8,125,402.6,125,402.6,125.2"/>
	<path fill="#FFFFFF" d="M406.7,126.2c0-0.4-0.6-0.6-1.2-0.6c-0.4,0-0.6,0-1,0.2c-0.2,0.2-0.4,0.2-0.4,0.4c0,0.4,0.4,0.6,1.4,0.6
		c1.2,0,1.8,0.4,1.8,1c0,0,0,0,0,0.2c0,0,0,0,0,0.2c-0.2,0.4-0.4,0.8-1,1.2c-0.4,0.2-1,0.4-1.6,0.4s-1-0.2-1.4-0.4
		c-0.4-0.2-0.6-0.6-0.6-1c0-0.2,0-0.2,0-0.4h0.8c0,0,0,0,0,0.2c0,0,0,0,0,0.2c0,0.6,0.4,0.8,1.2,0.8c0.4,0,0.8,0,1-0.2
		c0.4-0.2,0.6-0.4,0.6-0.6c0-0.4-0.4-0.6-1.4-0.6c-1.2-0.2-2-0.4-2-1c0-0.4,0.2-0.8,0.8-1.2c0.4-0.2,1-0.4,1.6-0.4
		c0.2,0,0.6,0,0.8,0c0.2,0,0.4,0.2,0.6,0.2c0.2,0.2,0.4,0.2,0.4,0.4c0,0.2,0.2,0.4,0.2,0.6h-0.6V126.2z"/>
	<path fill="#FFFFFF" d="M408.5,124.4h-2.4l0.2-0.4c0-0.2,0-0.2-0.2-0.2H406v-0.4h0.6c0.4,0,0.6,0.2,0.6,0.4v0.2h1.6L408.5,124.4z"
		/>
	<path fill="#FFFFFF" d="M410.3,129.3h-0.8l0.6-2.8c0,0,0,0,0-0.2v-0.2c0-0.6-0.4-0.8-1-0.8c-0.4,0-0.8,0.2-1.2,0.4l0.2-0.8
		c0.4-0.2,0.8-0.2,1.2-0.2c0.6,0,1,0.2,1.2,0.4c0.2,0.2,0.4,0.6,0.4,1c0,0.2,0,0.2,0,0.4L410.3,129.3z"/>
	<path fill="#FFFFFF" d="M416,127.2c-0.2,0.8-0.6,1.2-1.2,1.6c-0.6,0.4-1.4,0.6-2.4,0.6c-0.2,0-0.2,0-0.2,0h-0.2l-0.4-3.6l0.8-0.2
		l0.4,3.2c0.6,0,1.2-0.2,1.6-0.4c0.4-0.4,0.8-0.8,0.8-1.2c0-0.2,0-0.2,0-0.4c0-0.8-0.6-1.2-1.8-1.2h-0.2h-0.2l0.2-0.6h0.2h0.2
		c1.6,0,2.4,0.6,2.4,1.8C416,126.8,416,127,416,127.2"/>
	<path fill="#FFFFFF" d="M423.8,129.3H423l0.6-3c0,0,0,0,0-0.2s-0.2-0.4-0.4-0.6c-0.2-0.2-0.6-0.2-1-0.2c-0.2,0-0.4,0-0.6,0
		s-0.4,0.2-0.6,0.2s-0.2,0.2-0.4,0.2c-0.2,0.2-0.2,0.2-0.2,0.4v0.4h1.6l-0.2,0.6h-1.6l-0.4,2H419l0.6-3c0.2-0.4,0.4-0.8,0.8-1.2
		c0.4-0.2,1-0.4,1.6-0.4s1,0.2,1.4,0.4c0.4,0.2,0.6,0.6,0.6,1c0,0,0,0,0,0.2c0,0,0,0,0,0.2L423.8,129.3z"/>
	<path fill="#FFFFFF" d="M428.5,126.2c0-0.4-0.6-0.6-1.2-0.6c-0.4,0-0.6,0-1,0.2c-0.2,0.2-0.4,0.2-0.4,0.4c0,0.4,0.4,0.6,1.4,0.6
		c1.2,0,1.8,0.4,1.8,1v0.2c0,0,0,0,0,0.2c0,0.4-0.4,0.8-1,1.2c-0.4,0.2-1,0.4-1.6,0.4s-1-0.2-1.4-0.4c-0.4-0.2-0.6-0.6-0.6-1
		c0-0.2,0-0.2,0-0.4h0.8c0,0,0,0,0,0.2c0,0,0,0,0,0.2c0,0.6,0.4,0.8,1.2,0.8c0.4,0,0.8,0,1-0.2c0.4-0.2,0.6-0.4,0.6-0.6
		c0-0.4-0.4-0.6-1.4-0.6c-1.2-0.2-2-0.4-2-1c0-0.4,0.2-0.8,0.8-1.2c0.4-0.2,1-0.4,1.6-0.4c0.2,0,0.6,0,0.8,0c0.2,0,0.4,0.2,0.6,0.2
		c0.2,0.2,0.4,0.2,0.4,0.4c0.2,0.2,0.2,0.4,0.2,0.6h-0.6V126.2z"/>
	<path fill="#FFFFFF" d="M434,127.9c-0.2,0.4-0.4,0.8-0.8,1s-1,0.4-1.6,0.4c-0.2,0-0.6,0-0.8,0c-0.2,0-0.4-0.2-0.6-0.2
		c-0.2-0.2-0.4-0.2-0.4-0.4c-0.2-0.2-0.2-0.4-0.2-0.6c0,0,0,0,0-0.2c0,0,0,0,0-0.2l0.6-3h0.8l-0.6,3c0,0,0,0,0,0.2
		c0,0.2,0.2,0.4,0.4,0.6c0.2,0.2,0.6,0.2,1,0.2c0.2,0,0.4,0,0.6,0s0.4-0.2,0.4-0.2c0.2,0,0.2-0.2,0.4-0.2c0-0.2,0.2-0.2,0.2-0.4
		l0.6-3h0.8L434,127.9z"/>
	<path fill="#FFFFFF" d="M439.4,127.2c-0.2,0.6-0.4,1.2-1,1.6s-1.2,0.6-1.8,0.6c-0.6,0-1-0.2-1.2-0.4c-0.4-0.2-0.6-0.6-0.6-1h0.8
		c0.2,0.6,0.6,0.8,1.2,0.8c0.6,0,1-0.2,1.4-0.8c0.4-0.4,0.4-0.8,0.4-1.4c0-0.4,0-0.6-0.2-0.8c-0.2-0.2-0.6-0.4-1-0.4
		c-0.6,0-1.2,0.2-1.6,0.8H435c0.2-0.4,0.6-0.8,1-1s1-0.4,1.4-0.4c0.6,0,1.2,0.2,1.4,0.6c0.4,0.4,0.4,0.8,0.4,1.2
		C439.4,126.8,439.4,127,439.4,127.2"/>
	<path fill="#FFFFFF" d="M444.1,127.2c-0.2,0.8-0.6,1.2-1.2,1.6s-1.4,0.6-2.4,0.6h-0.2h-0.2l-0.4-3.6l0.8-0.2l0.4,3.2
		c0.6,0,1.2-0.2,1.6-0.4c0.4-0.4,0.8-0.8,0.8-1.2c0-0.2,0-0.2,0-0.4c0-0.8-0.6-1.2-1.8-1.2h0h-0.2l0.2-0.6h0.2h0.2
		c1.6,0,2.4,0.6,2.4,1.8C444.3,126.8,444.3,127,444.1,127.2"/>
	<path fill="#FFFFFF" d="M449.3,127.2c-0.2,0.8-0.6,1.4-1.2,1.8c-0.8,0.4-1.6,0.6-2.6,0.6l-0.2-2.2h-0.6l0.2-0.6h1.2l0.2,2.2
		c0.6,0,1-0.2,1.4-0.6c0.4-0.4,0.6-0.8,0.8-1.2c0-0.2,0-0.2,0-0.4c0-0.4-0.2-0.6-0.4-1c-0.2-0.2-0.6-0.4-1.2-0.4s-1.4,0.2-2,0.6
		l-0.6-0.4c0.8-0.6,1.8-0.8,2.6-0.8c0.6,0,1.2,0.2,1.6,0.4c0.4,0.4,0.6,0.8,0.6,1.2C449.3,126.8,449.3,127,449.3,127.2"/>
	<path fill="#FFFFFF" d="M453.4,126.2c0-0.4-0.6-0.6-1.2-0.6c-0.4,0-0.6,0-1,0.2c-0.2,0.2-0.4,0.2-0.4,0.4c0,0.4,0.4,0.6,1.4,0.6
		c1.2,0,1.8,0.4,1.8,1v0.2c0,0,0,0,0,0.2c0,0.4-0.4,0.8-0.8,1.2c-0.4,0.2-1,0.4-1.6,0.4s-1-0.2-1.4-0.4c-0.4-0.2-0.6-0.6-0.6-1
		c0-0.2,0-0.2,0-0.4h0.8c0,0,0,0,0,0.2c0,0,0,0,0,0.2c0,0.6,0.4,0.8,1.2,0.8c0.4,0,0.8,0,1-0.2c0.4-0.2,0.6-0.4,0.6-0.6
		c0-0.4-0.4-0.6-1.2-0.6c-1.2-0.2-2-0.4-2-1c0-0.4,0.2-0.8,0.8-1.2c0.4-0.2,1-0.4,1.6-0.4c0.2,0,0.6,0,0.8,0c0.2,0,0.4,0.2,0.6,0.2
		c0.2,0.2,0.4,0.2,0.4,0.4c0.2,0.2,0.2,0.4,0.2,0.6h-1V126.2z"/>
	<path fill="#FFFFFF" d="M461.5,126.2c-0.2-0.4-0.6-0.6-1.2-0.6c-0.4,0-0.6,0-1,0.2c-0.2,0.2-0.4,0.2-0.4,0.4c0,0.4,0.4,0.6,1.4,0.6
		c1.2,0,1.8,0.4,1.8,1v0.2c0,0,0,0,0,0.2c0,0.4-0.4,0.8-0.8,1.2c-0.4,0.2-1,0.4-1.6,0.4s-1-0.2-1.4-0.4c-0.4-0.2-0.6-0.6-0.6-1
		c0-0.2,0-0.2,0-0.4h0.8c0,0,0,0,0,0.2c0,0,0,0,0,0.2c0,0.6,0.4,0.8,1.2,0.8c0.4,0,0.8,0,1-0.2c0.4-0.2,0.6-0.4,0.6-0.6
		c0-0.4-0.4-0.6-1.2-0.6c-1.2-0.2-2-0.4-2-1c0-0.4,0.2-0.8,0.8-1.2c0.4-0.2,1-0.4,1.6-0.4c0.2,0,0.6,0,0.8,0s0.4,0.2,0.6,0.2
		c0.2,0.2,0.4,0.2,0.4,0.4c0.2,0.2,0.2,0.4,0.2,0.6h-1V126.2z"/>
	<path fill="#FFFFFF" d="M461.3,130.5c0,0.2-0.2,0.4-0.4,0.4c-0.2,0.2-0.6,0.2-0.8,0.2c-0.4,0-0.8-0.2-1-0.4v-0.4h-0.4l0.2-0.6h1.2
		l-0.2,0.8h0.2c0.2,0,0.4,0,0.4-0.2l0.2-0.6h0.8L461.3,130.5z"/>
	<path fill="#FFFFFF" d="M467.1,127.9c0,0.4-0.4,0.8-0.8,1c-0.4,0.2-1,0.4-1.6,0.4c-0.2,0-0.6,0-0.8,0s-0.4-0.2-0.6-0.2
		c-0.2-0.2-0.4-0.2-0.4-0.4c-0.2-0.2-0.2-0.4-0.2-0.6c0,0,0,0,0-0.2c0,0,0,0,0-0.2l0.6-3h0.8l-0.6,3c0,0,0,0,0,0.2
		c0,0.2,0.2,0.4,0.4,0.6s0.6,0.2,1,0.2c0.2,0,0.4,0,0.6,0c0.2,0,0.4-0.2,0.6-0.2c0.2,0,0.2-0.2,0.4-0.2c0-0.2,0.2-0.2,0.2-0.4l1-4.4
		h0.8L467.1,127.9z"/>
	<path fill="#FFFFFF" d="M468.5,129.3h-0.8l1-4.4h0.8L468.5,129.3z M469.9,129.3h-0.8l1-4.4h0.8L469.9,129.3z"/>
	<path fill="#FFFFFF" d="M475.4,127.9c0,0.4-0.4,0.8-0.8,1c-0.4,0.2-1,0.4-1.6,0.4c-0.2,0-0.6,0-0.8,0s-0.4-0.2-0.6-0.2
		c-0.2-0.2-0.2-0.2-0.4-0.4c0-0.2-0.2-0.4-0.2-0.6c0,0,0,0,0-0.2c0,0,0,0,0-0.2l0.6-3h0.8l-0.6,3c0,0,0,0,0,0.2
		c0,0.2,0.2,0.4,0.4,0.6s0.6,0.2,1,0.2c0.2,0,0.4,0,0.6,0c0.2,0,0.4-0.2,0.4-0.2c0.2,0,0.2-0.2,0.4-0.2c0-0.2,0.2-0.2,0.2-0.4l0.6-3
		h0.8L475.4,127.9z"/>
	<path fill="#FFFFFF" d="M480.5,127.9c-0.2,0.4-0.4,0.8-0.8,1c-0.6,0.2-1,0.4-1.6,0.4c-0.2,0-0.6,0-0.8,0s-0.4-0.2-0.6-0.2
		c-0.2-0.2-0.4-0.2-0.4-0.4c0-0.2-0.2-0.4-0.2-0.6v0c0,0,0,0,0-0.2l0.6-3h0.8l-0.6,3c0,0,0,0,0,0.2c0,0.2,0.2,0.4,0.4,0.6
		s0.6,0.2,1,0.2c0.2,0,0.4,0,0.6,0c0.2,0,0.4-0.2,0.4-0.2c0.2,0,0.2-0.2,0.4-0.2c0.2-0.2,0.2-0.2,0.2-0.4l0.6-3h0.8L480.5,127.9z"/>
	<path fill="#FFFFFF" d="M482.1,129.3h-0.8l1-4.9c0-0.2,0.2-0.4,0.4-0.6c0.2-0.2,0.4-0.4,0.4-0.4c0-0.2,0-0.2-0.2-0.2
		c-0.2,0-0.2-0.2-0.4-0.2c-0.4,0-0.8,0.2-0.8,0.6h-0.8c0-0.2,0.2-0.4,0.2-0.4c0.2-0.2,0.2-0.2,0.4-0.4c0.2-0.2,0.4-0.2,0.6-0.2
		c0.2,0,0.4,0,0.6,0c0.4,0,0.6,0,0.8,0.2s0.4,0.4,0.4,0.6s-0.2,0.4-0.4,0.6s-0.4,0.4-0.4,0.6L482.1,129.3z"/>
	<path fill="#FFFFFF" d="M486.5,125.8c0.8,0.2,1.2,0.4,1.2,1c0,0,0,0,0,0.2v0.2l-0.4,2.4h-0.8l0.4-2.2c0,0,0,0,0-0.2
		s-0.2-0.4-0.4-0.6c-0.2-0.2-0.6-0.2-0.8-0.2l-1.8,1l-0.4,2.2h-0.8l1-4.4h0.8l-0.4,1.4l3-1.6l0.8,0.2L486.5,125.8z"/>
	<path fill="#FFFFFF" d="M492.6,127.9c0,0.2-0.2,0.4-0.2,0.6c-0.2,0.2-0.4,0.4-0.6,0.4c-0.2,0.2-0.4,0.2-0.6,0.4
		c-0.2,0-0.6,0.2-0.8,0.2c-0.6,0-1.2-0.2-1.6-0.6v0.4h-0.8l1-4.4h0.8l-0.6,3c0,0.2,0,0.6,0.4,0.8c0.2,0.2,0.6,0.2,1,0.2s0.8,0,1-0.2
		s0.4-0.4,0.4-0.8l0.6-3h0.8L492.6,127.9z"/>
	<polygon fill="#FFFFFF" points="493.4,124.4 492.6,124.4 492.8,123.2 493.6,123.2 	"/>
	<path fill="#F05A2A" d="M52.8,24.3c1.2,1.2,1.8,2.8,1.8,4.6c0,0.4,0,0.6,0,0.8c0,0.2,0,0.6-0.2,0.8c-0.4,2.4-1.6,4.4-3.4,5.9
		c-1.8,1.6-4,2.4-6.3,2.4c-2.2,0-3.8-0.6-4.9-1.8c-1.2-1.2-1.8-2.8-1.8-4.7c0-0.6,0-1.2,0.2-1.8c0-0.4,0.2-0.8,0.2-1
		c0-0.4,0.2-0.6,0.4-0.8h6.3l-0.4,2.2h-4.2c0,0.2,0,0.4,0,0.4c0,0.2,0,0.4,0,0.4c0,1.4,0.4,2.6,1.4,3.6c0.8,0.8,2,1.4,3.6,1.4
		c1.8,0,3.2-0.6,4.4-1.8c1.4-1.2,2.2-2.6,2.4-4.4c0-0.4,0.2-0.8,0.2-1.2c0-1.4-0.4-2.6-1.2-3.4c-0.8-0.8-2-1.4-3.6-1.4
		c-2.4,0-4.2,1-5.7,3h-2.6c2.2-3.6,4.9-5.3,8.7-5.3c1.4,0,2.6,0.2,3.4,0.8l2-2l1.6,1.2L52.8,24.3z"/>
	<path fill="#F05A2A" d="M63.7,38.5h-2.4l1.8-9.9c0-0.2,0-0.4,0-0.6c0-0.2,0-0.4,0-0.6c0-2-1-3.2-3.4-3.2c-1.2,0-2.6,0.4-4,1.2
		l0.4-2.6c1.2-0.6,2.4-0.8,4-0.8c1.8,0,3.2,0.4,4,1.2c0.8,0.8,1.4,2,1.4,3.4c0,0.4,0,0.8-0.2,1.2L63.7,38.5z"/>
	<path fill="#F05A2A" d="M78.7,27c-0.2-1.6-1.6-2.4-4-2.4c-1,0-2,0.2-3,0.8c-0.8,0.4-1.4,1-1.6,1.6c-0.2,1.2,1.2,1.8,4.4,2
		c3.8,0.2,5.7,1.6,5.7,3.8c0,0.2,0,0.2,0,0.4s0,0.2,0,0.4c-0.2,1.6-1.2,3-2.8,4c-1.4,1-3.2,1.4-5.1,1.4c-1.8,0-3.2-0.4-4.2-1.2
		c-1.2-0.8-1.8-2-1.8-3.6c0-0.4,0-0.8,0.2-1.2H69c0,0.2,0,0.2,0,0.4s0,0.2,0,0.4c0,2,1.4,3,4,3c1.2,0,2.2-0.2,3.2-0.8
		c1-0.6,1.6-1.4,1.8-2.2c0.2-1.4-1.2-2.2-4-2.6c-4-0.4-5.9-1.6-5.9-3.4c0-1.6,0.8-3,2.6-4c1.6-1,3.2-1.4,4.7-1.4
		c1,0,1.8,0.2,2.4,0.4c0.8,0.2,1.4,0.6,2,1c0.6,0.4,1,0.8,1.2,1.4c0.2,0.6,0.4,1.2,0.4,2h-2.6V27z"/>
	<path fill="#F05A2A" d="M83.3,19.1h-1.2c-0.8,0-1.4,0.4-1.4,1v0.4h-2.4l0.2-0.8c0.4-1.6,1.4-2.4,3.2-2.4h1.8L83.3,19.1z"/>
	<path fill="#F05A2A" d="M95.2,38.5h-2.4L95,26.5c-0.6-1.4-1.6-2-3.4-2c-2,0-3.6,0.8-5.1,2.6c-1.4,1.8-2,3.6-2,5.5
		c0,2.6,1,3.8,3,3.8c1,0,1.8-0.4,2.6-1.2l1.4,1.4c-1.2,1.2-2.8,1.8-4.4,1.8c-3.4,0-5.1-1.8-5.1-5.5c0-0.8,0-1.6,0.2-2.4
		c0.4-2.4,1.6-4.4,3.4-6.1c1.8-1.8,4-2.6,6.1-2.6c3,0,4.9,1.2,5.7,3.4L95.2,38.5z"/>
	<path fill="#F05A2A" d="M100.5,38.7h-2.4l3-16h2.2L100.5,38.7z M104.9,38.7h-2.4l2.8-16h2.4L104.9,38.7z"/>
	<path fill="#F05A2A" d="M122.5,30.6c-0.4,2.4-1.4,4.4-2.8,5.7c-1.8,1.6-3.6,2.6-5.9,2.6c-1.6,0-2.8-0.4-4-1.4s-1.8-2.2-2-3.8h2.4
		c0.4,2,1.8,3,3.8,3c1.8,0,3.4-0.8,4.6-2.6c1-1.6,1.6-3.2,1.6-4.9c0-1.4-0.2-2.4-0.8-3.2c-0.6-0.8-1.6-1.4-3-1.4c-2.2,0-3.8,1-4.7,3
		H109c0.8-1.6,2-3,3.4-4c1.4-1,2.8-1.4,4.4-1.4c2,0,3.4,0.6,4.6,1.8c1,1.2,1.4,2.6,1.4,4.6C122.7,29.4,122.7,30,122.5,30.6"/>
	<path fill="#F05A2A" d="M135.5,27c-0.4-1.6-1.6-2.4-4-2.4c-1,0-2,0.2-3,0.8c-0.8,0.4-1.4,1-1.6,1.6c-0.2,1.2,1.2,1.8,4.4,2
		c3.8,0.2,5.7,1.6,5.7,3.8c0,0.2,0,0.2,0,0.4s0,0.2,0,0.4c-0.2,1.6-1.2,3-2.8,4c-1.6,1-3.2,1.4-5.1,1.4c-1.8,0-3.2-0.4-4.2-1.2
		c-1.2-0.8-1.8-2-1.8-3.6c0-0.4,0-0.8,0.2-1.2h2.4c0,0.2,0,0.2,0,0.4s0,0.2,0,0.4c0,2,1.4,3,4,3c1.2,0,2.2-0.2,3.2-0.8
		c1-0.6,1.6-1.4,1.8-2.2c0.2-1.4-1.2-2.2-4-2.6c-4-0.4-5.9-1.6-5.9-3.4c0-1.6,0.8-3,2.6-4c1.6-1,3.2-1.4,4.7-1.4
		c0.8,0,1.8,0.2,2.4,0.4c0.8,0.2,1.4,0.6,2,1c0.6,0.4,1,0.8,1.2,1.4c0.2,0.6,0.4,1.2,0.4,2h-2.6V27z"/>
	<path fill="#F05A2A" d="M140.1,19.1h-1.2c-0.8,0-1.4,0.4-1.4,1v0.4h-2.6l0.2-0.8c0.4-1.6,1.4-2.4,3.2-2.4h2.2L140.1,19.1z"/>
	<polygon fill="#F05A2A" points="141.1,38.7 138.7,38.7 141.5,22.7 143.8,22.7 	"/>
	<path fill="#F05A2A" d="M159.5,24.3c1.2,1.2,1.8,2.8,1.8,4.6c0,0.4,0,0.6,0,0.8c0,0.2,0,0.6-0.2,0.8c-0.4,2.4-1.6,4.4-3.4,5.9
		s-3.8,2.4-6.3,2.4c-2.2,0-3.8-0.6-5.1-1.8c-1.2-1.2-1.8-2.8-1.8-4.7c0-0.6,0-1.2,0.2-1.8c0-0.4,0.2-0.8,0.2-1
		c0-0.4,0.2-0.6,0.2-0.8h6.3l-0.4,2.2h-4.2c0,0.2,0,0.4,0,0.4c0,0.2,0,0.4,0,0.4c0,1.4,0.4,2.6,1.4,3.6c0.8,0.8,2,1.4,3.6,1.4
		c1.8,0,3.2-0.6,4.4-1.6c1.4-1.2,2.2-2.6,2.4-4.4c0-0.4,0.2-0.8,0.2-1.2c0-1.4-0.4-2.6-1.2-3.4c-0.8-0.8-2-1.4-3.6-1.4
		c-2.4,0-4.2,1-5.7,3h-2.6c2.2-3.6,4.9-5.3,8.7-5.3c1.4,0,2.6,0.2,3.6,0.8l2-2l1.6,1.2L159.5,24.3z"/>
	<path fill="#F05A2A" d="M170.3,38.7H168l1.8-9.9c0-0.2,0-0.4,0-0.6c0-0.2,0-0.4,0-0.6c0-2-1-3.2-3.4-3.2c-1.2,0-2.6,0.4-4,1.2
		l0.4-2.6c1.2-0.6,2.4-0.8,4-0.8c1.8,0,3.2,0.4,4,1.2c1,0.8,1.4,2,1.4,3.4c0,0.4,0,0.8-0.2,1.2L170.3,38.7z"/>
	<path fill="#F05A2A" d="M188.9,23.3c-0.2,0.2-0.6,0.6-0.8,0.8c0.6,0.6,1,1.4,1,2.2L187,38.5h-2.4l1.2-6.5c-0.2-0.8-0.8-1.4-1.6-1.8
		c-0.8-0.4-1.8-0.8-3-0.8c-1.4,0-2.8,0.4-3.8,1.2c-1.2,1-1.8,2-1.8,3.4c0,0.6,0.2,1.2,0.6,1.6c0.4,0.4,1,0.6,1.8,0.6
		s1.6-0.2,2.6-0.8l1.2,1.8c-1.2,0.8-2.6,1.2-4.2,1.2c-1.4,0-2.4-0.4-3.2-1.2c-0.8-0.8-1.2-1.8-1.2-3c0-2.2,1-3.8,2.8-5.3
		c1.6-1.4,3.6-2,5.7-2c2,0,3.6,0.6,4.7,1.6l0.4-2.4c-0.2-0.6-0.6-1-1.4-1.6c-0.8-0.4-1.6-0.6-2.4-0.6c-2.4,0-4.2,0.8-5.3,2.4h-2.6
		c1.6-3.2,4.4-4.7,8.1-4.7c1.2,0,2.2,0.2,3,0.6l1.8-1.8l1.8,1.4C189.5,22.9,189.1,23.1,188.9,23.3"/>
	<path fill="#F05A2A" d="M191.1,19.1h-1.2c-0.8,0-1.4,0.4-1.4,1v0.4h-2.4l0.2-0.8c0.4-1.6,1.4-2.4,3.2-2.4h2.2L191.1,19.1z"/>
</g>
</svg>
