<svg width="79" height="69" viewBox="0 0 79 69" fill="none" xmlns="http://www.w3.org/2000/svg">
<path d="M74.7649 42.8345C78.9195 62.517 61.5841 55.2153 46.2011 58.4624C30.8182 61.7094 9.0125 57.382 4.85785 37.6995C0.703207 18.017 12.6802 12.009 28.0632 8.76189C43.4461 5.51481 76.2989 13.8742 74.7649 42.8345Z" fill="#7CAF23"/>
<path d="M24.6743 25.7292C25.0628 25.2111 25.6443 25.0041 26.4188 25.1083C27.1108 25.2014 27.6082 25.4948 27.9109 25.9885C28.1423 26.3887 28.1438 27.4374 27.9155 29.1347C27.798 30.0081 27.6862 30.7145 27.5801 31.2538C27.2868 33.0598 27.0172 34.3154 26.7714 35.0205C26.542 35.7278 26.2277 36.2559 25.8284 36.6048C25.1674 37.1534 24.4497 37.3756 23.6752 37.2714C22.703 37.1407 21.7538 36.5264 20.8278 35.4288C20.1442 34.649 19.6211 34.2347 19.2586 34.1859C18.7148 34.1128 18.3321 34.9001 18.1104 36.548C17.9818 37.5037 17.7146 38.1808 17.3087 38.5792C16.905 38.9611 16.3324 39.1021 15.5908 39.0024C14.7999 38.896 14.3324 38.3801 14.1884 37.4548C14.0467 36.513 14.1565 34.6991 14.5179 32.0131C14.7684 30.151 15.0018 28.79 15.2182 27.9299C15.4532 27.0556 15.7363 26.4478 16.0674 26.1064C16.6032 25.4907 17.2501 25.2338 18.0082 25.3357C18.7497 25.4355 19.248 25.8465 19.5032 26.5686C19.7343 27.2205 20.3209 28.2221 21.2632 29.5736C22.2076 30.9086 22.8034 31.5927 23.0506 31.6259C23.1 31.6326 23.165 31.5239 23.2455 31.2998C23.3424 31.078 23.434 30.7715 23.5201 30.3805C23.625 29.9752 23.7073 29.5501 23.7672 29.1051C23.9867 27.4738 24.289 26.3485 24.6743 25.7292ZM37.5327 29.3213C37.5682 29.0576 37.3964 28.9003 37.0174 28.8493C36.5396 28.785 36.1362 28.9153 35.8073 29.2401C35.1495 29.8898 34.8039 30.3382 34.7707 30.5854C34.7463 30.7667 34.8824 30.8773 35.179 30.9172C35.558 30.9682 36.0329 30.8055 36.6036 30.4293C37.1765 30.0367 37.4862 29.6673 37.5327 29.3213ZM35.9347 24.5514C36.6316 24.3599 37.3425 24.313 38.0676 24.4105C39.0068 24.5369 39.8233 24.89 40.5171 25.4698C41.2273 26.0519 41.7 26.7782 41.9352 27.6486C42.0785 28.2048 42.1113 28.7712 42.0337 29.348C41.7965 31.1112 40.6756 32.6464 38.6711 33.9538L36.5203 35.3505L39.2592 35.568L42.0195 35.8135L41.9403 37.3379C41.9333 37.639 41.9221 37.8472 41.9066 37.9625C41.8534 38.358 41.7157 38.6331 41.4936 38.7877C41.2715 38.9424 40.8378 39.1105 40.1926 39.2922C39.0595 39.6095 37.9491 39.695 36.8615 39.5487C34.4556 39.225 32.5569 37.9378 31.1652 35.687C30.6673 34.8987 30.3527 34.244 30.2215 33.723C30.1067 33.2043 30.107 32.5165 30.2223 31.6596C30.4921 30.1524 30.8362 29.0915 31.2544 28.4767C31.7487 27.6708 32.4875 26.8558 33.4707 26.0318C34.4562 25.1913 35.2775 24.6979 35.9347 24.5514ZM58.8212 29.9706C59.2138 29.6711 59.682 29.5579 60.2258 29.6311C60.9179 29.7242 61.3947 30.2329 61.6562 31.1573C61.9364 32.0674 61.9934 33.1404 61.8271 34.3763C61.6897 35.3979 61.4177 36.3596 61.0112 37.2611C60.6234 38.1485 60.1282 38.8368 59.5255 39.3261C58.4928 40.1435 57.3421 40.4668 56.0732 40.2961C55.3317 40.1964 54.6557 39.9209 54.0454 39.4697C53.8181 39.2881 53.5974 39.1829 53.3832 39.1541C53.0536 39.1098 52.5287 39.3328 51.8085 39.8231C50.6021 40.6841 49.5623 41.056 48.6889 40.9385C48.1781 40.8697 47.6317 40.6285 47.0499 40.2147C45.3944 39.0524 44.755 37.0707 45.1319 34.2693C45.194 33.8079 45.2807 33.3498 45.3922 32.8951C45.8129 31.1398 46.2335 29.9465 46.654 29.3152C47.0909 28.6862 47.6554 28.4182 48.3475 28.5113C49.0726 28.6088 49.5639 28.8846 49.8216 29.3387C50.0815 29.7763 50.1449 30.4895 50.0119 31.4782C49.9742 31.7583 49.867 32.3059 49.6903 33.121C49.497 33.9338 49.3749 34.5298 49.3239 34.9088C49.2264 35.6338 49.293 36.0119 49.5237 36.0429C49.8203 36.0828 50.4181 35.5676 51.317 34.4974C51.8759 33.8344 52.3368 33.4015 52.6996 33.1987C53.0789 32.9981 53.5405 32.9343 54.0843 33.0075C54.6116 33.0784 55.002 33.2316 55.2555 33.467C55.5255 33.7047 55.7701 34.1318 55.9891 34.7485C56.2826 35.5597 56.5035 35.9753 56.6518 35.9952C56.7672 36.0107 56.9998 35.8407 57.3496 35.4851C57.7181 35.1153 57.9544 34.5431 58.0586 33.7686C58.1052 33.4226 58.1337 33.0238 58.1441 32.5722C58.1422 32.3371 58.1689 32.0135 58.2243 31.6015C58.3418 30.7282 58.5408 30.1845 58.8212 29.9706ZM66.3983 29.3039C66.5875 29.1448 66.8969 29.027 67.3266 28.9506C67.775 28.86 68.2052 28.8423 68.6172 28.8977C69.507 29.0175 70.0939 29.3313 70.3779 29.8392C70.6806 30.3329 70.7466 31.2142 70.5759 32.483C70.4717 33.2575 70.223 34.4823 69.8299 36.1575C69.3452 38.139 68.9701 39.4307 68.7046 40.0325C68.4556 40.6365 68.0991 41.0415 67.6352 41.2476L66.5534 41.8067L67.3991 43.0025C67.8248 43.5799 67.9933 44.1981 67.9046 44.8572C67.8203 45.4834 67.5236 46.0055 67.0144 46.4236C66.5052 46.8416 65.9375 47.0085 65.3113 46.9242C64.9488 46.8755 64.6056 46.7454 64.2817 46.5341C63.3858 45.9606 63.0033 45.1877 63.134 44.2155C63.2205 43.5728 63.5464 43.0211 64.1117 42.5603C64.6561 42.1302 64.9415 41.8163 64.9681 41.6186C64.9903 41.4538 64.8555 41.2091 64.5636 40.8847C64.3617 40.6394 64.2346 40.3371 64.1823 39.9778C64.1486 39.6041 64.1906 38.9807 64.3081 38.1073C64.4056 37.3822 64.5678 36.3639 64.7946 35.0523C65.4271 31.5975 65.9617 29.6813 66.3983 29.3039Z" fill="white"/>
</svg>
