<svg width="71" height="62" viewBox="0 0 71 62" fill="none" xmlns="http://www.w3.org/2000/svg">
<path d="M65.0833 0H5.91667C2.65354 0 0 2.66735 0 5.94582V42.602C0 45.8805 2.65354 48.5479 5.91667 48.5479H39.6217C40.0449 56.035 46.2213 62 53.7758 62C61.589 62 67.9451 55.6239 67.9687 47.7776C69.8143 46.7432 71 44.7895 71 42.602V5.94582C71 2.66735 68.3465 0 65.0833 0ZM53.7758 59.0271C47.5803 59.0271 42.539 53.9609 42.539 47.7342C42.539 41.5075 47.5803 36.4421 53.7758 36.4421C59.9713 36.4421 65.0126 41.5075 65.0126 47.7342C65.0126 53.9609 59.9713 59.0271 53.7758 59.0271ZM46.0867 35.7608V30.7975C46.0867 26.5356 49.5376 23.0684 53.7787 23.0684C58.0197 23.0684 61.4706 26.5356 61.4706 30.7975V35.7643C59.2512 34.3184 56.6123 33.4692 53.7758 33.4692C50.9417 33.4692 48.305 34.3171 46.0867 35.7608ZM68.0417 42.602C68.0417 43.2103 67.847 43.7766 67.5261 44.2549C66.9676 42.0285 65.8927 40.0116 64.429 38.3377V30.7975C64.429 24.8967 59.6506 20.0955 53.7787 20.0955C47.9068 20.0955 43.1284 24.8967 43.1284 30.7975V38.3314C41.377 40.3317 40.1798 42.8231 39.7612 45.575H5.91667C4.28583 45.575 2.95833 44.2416 2.95833 42.602V5.94582C2.95833 4.30622 4.28583 2.97291 5.91667 2.97291H65.0833C66.7142 2.97291 68.0417 4.30622 68.0417 5.94582V42.602Z" fill="#96CC1C"/>
<path d="M21.5158 7.64499C20.3159 7.64499 19.1999 7.96643 18.2012 8.48565C17.1613 7.93749 16.0171 7.64136 14.8365 7.64136C10.8236 7.64136 7.55908 10.922 7.55908 14.9546C7.55908 18.9872 10.8236 22.2678 14.8365 22.2678C16.0171 22.2678 17.1613 21.9717 18.2012 21.4236C19.1999 21.9428 20.3159 22.2642 21.5158 22.2642C25.5258 22.2642 28.7889 18.985 28.7889 14.9546C28.7889 10.9242 25.5258 7.64499 21.5158 7.64499ZM15.6282 19.2125C15.368 19.2617 15.1043 19.2949 14.8365 19.2949C12.4545 19.2949 10.5174 17.3476 10.5174 14.9546C10.5174 12.5616 12.4545 10.6143 14.8365 10.6143C15.1043 10.6143 15.368 10.6475 15.6282 10.6967C14.7646 11.8987 14.2413 13.3622 14.2413 14.9546C14.2413 16.547 14.7646 18.0105 15.6282 19.2125ZM21.5158 19.2913C19.1353 19.2913 17.1997 17.3461 17.1997 14.9546C17.1997 12.5631 19.1353 10.6179 21.5158 10.6179C23.8949 10.6179 25.8305 12.5631 25.8305 14.9546C25.8305 17.3461 23.8949 19.2913 21.5158 19.2913Z" fill="#96CC1C"/>
<path d="M13.6086 36.8304H9.03825C8.22066 36.8304 7.55908 37.496 7.55908 38.3169C7.55908 39.1378 8.22066 39.8034 9.03825 39.8034H13.6086C14.4262 39.8034 15.0878 39.1378 15.0878 38.3169C15.0878 37.496 14.4262 36.8304 13.6086 36.8304Z" fill="#96CC1C"/>
<path d="M24.7761 36.8304H20.2043C19.3867 36.8304 18.7251 37.496 18.7251 38.3169C18.7251 39.1378 19.3867 39.8034 20.2043 39.8034H24.7761C25.5937 39.8034 26.2553 39.1378 26.2553 38.3169C26.2553 37.496 25.5937 36.8304 24.7761 36.8304Z" fill="#96CC1C"/>
<path d="M35.9421 36.8304H31.3717C30.5542 36.8304 29.8926 37.496 29.8926 38.3169C29.8926 39.1378 30.5542 39.8034 31.3717 39.8034H35.9421C36.7597 39.8034 37.4213 39.1378 37.4213 38.3169C37.4213 37.496 36.7597 36.8304 35.9421 36.8304Z" fill="#96CC1C"/>
<path d="M53.7759 41.1083C51.3289 41.1083 49.3384 43.1086 49.3384 45.5676C49.3384 47.5029 50.5787 49.1374 52.2967 49.753V52.8758C52.2967 53.6967 52.9583 54.3623 53.7759 54.3623C54.5935 54.3623 55.255 53.6967 55.255 52.8758V49.7531C56.9731 49.1375 58.2134 47.5029 58.2134 45.5676C58.2134 43.1086 56.2229 41.1083 53.7759 41.1083ZM53.7759 47.0541C52.9597 47.0541 52.2967 46.3871 52.2967 45.5676C52.2967 44.7482 52.9597 44.0812 53.7759 44.0812C54.592 44.0812 55.255 44.7482 55.255 45.5676C55.255 46.3871 54.592 47.0541 53.7759 47.0541Z" fill="#96CC1C"/>
</svg>
