<svg width="73" height="74" viewBox="0 0 73 74" fill="none" xmlns="http://www.w3.org/2000/svg">
<g filter="url(#filter0_d_258_4628)">
<circle cx="36.6214" cy="34.6652" r="18.6219" transform="rotate(-180 36.6214 34.6652)" fill="white"/>
</g>
<path d="M34.7908 36.3184L37.6882 39.2159C37.8065 39.3334 37.9665 39.3994 38.1333 39.3994C38.3 39.3994 38.46 39.3334 38.5783 39.2159C38.6375 39.1572 38.6844 39.0874 38.7165 39.0104C38.7485 38.9335 38.765 38.851 38.765 38.7677C38.765 38.6843 38.7485 38.6018 38.7165 38.5249C38.6844 38.448 38.6375 38.3782 38.5783 38.3195L35.6745 35.4284C35.6154 35.3697 35.5684 35.2999 35.5364 35.2229C35.5043 35.146 35.4878 35.0635 35.4878 34.9802C35.4878 34.8968 35.5043 34.8143 35.5364 34.7374C35.5684 34.6605 35.6154 34.5907 35.6745 34.532L38.5783 31.6409C38.6972 31.5228 38.7643 31.3624 38.7649 31.1949C38.7655 31.0274 38.6995 30.8665 38.5814 30.7476C38.4634 30.6288 38.303 30.5617 38.1355 30.5611C37.968 30.5605 37.8071 30.6264 37.6882 30.7445L34.7908 33.6419C34.4362 33.997 34.237 34.4783 34.237 34.9802C34.237 35.482 34.4362 35.9633 34.7908 36.3184Z" fill="black"/>
<defs>
<filter id="filter0_d_258_4628" x="0.324518" y="0.893463" width="72.5938" height="72.5936" filterUnits="userSpaceOnUse" color-interpolation-filters="sRGB">
<feFlood flood-opacity="0" result="BackgroundImageFix"/>
<feColorMatrix in="SourceAlpha" type="matrix" values="0 0 0 0 0 0 0 0 0 0 0 0 0 0 0 0 0 0 127 0" result="hardAlpha"/>
<feOffset dy="2.525"/>
<feGaussianBlur stdDeviation="8.8375"/>
<feComposite in2="hardAlpha" operator="out"/>
<feColorMatrix type="matrix" values="0 0 0 0 0 0 0 0 0 0 0 0 0 0 0 0 0 0 0.1 0"/>
<feBlend mode="normal" in2="BackgroundImageFix" result="effect1_dropShadow_258_4628"/>
<feBlend mode="normal" in="SourceGraphic" in2="effect1_dropShadow_258_4628" result="shape"/>
</filter>
</defs>
</svg>
