<svg width="76" height="75" viewBox="0 0 76 75" fill="none" xmlns="http://www.w3.org/2000/svg">
<path d="M28.2214 23.665C14.8219 23.665 3.95947 34.5275 3.95947 47.9269C3.95947 61.3264 14.8219 72.1889 28.2214 72.1889C41.6209 72.1889 52.4833 61.3264 52.4833 47.9269C52.4833 34.5275 41.6209 23.665 28.2214 23.665ZM28.2214 26.6359C39.9801 26.6359 49.5124 36.1682 49.5124 47.9269C49.5124 59.6857 39.9801 69.218 28.2214 69.218C16.4626 69.218 6.93032 59.6857 6.93032 47.9269C6.93032 36.1682 16.4626 26.6359 28.2214 26.6359Z" fill="#96CC1C"/>
<path d="M50.9984 10.9105C64.3979 10.9105 75.2603 21.7729 75.2603 35.1724C75.2603 46.9202 66.8519 56.921 55.4306 59.0302C54.6239 59.1791 53.8491 58.6459 53.7002 57.8392C53.5512 57.0324 54.0844 56.2577 54.8911 56.1087C64.9096 54.2586 72.2894 45.4813 72.2894 35.1724C72.2894 23.4137 62.7571 13.8814 50.9984 13.8814C44.7051 13.8814 38.8609 16.6256 34.8392 21.3086C34.3047 21.931 33.3668 22.0022 32.7445 21.4677C32.1221 20.9332 32.0509 19.9954 32.5854 19.373C37.1656 14.0397 43.8296 10.9105 50.9984 10.9105Z" fill="#96CC1C"/>
<path d="M29.9563 36.0629C34.3777 36.0629 37.2171 39.4486 37.2123 43.681C37.2076 47.7735 34.5453 51.0771 30.378 51.2859L29.9563 51.2964L27.1204 51.296L27.1214 59.2554H20.5757V36.0629H29.9563ZM29.9563 38.4395L22.9513 38.4382V56.8773H24.7437L24.7447 48.9197H29.9563C32.9515 48.9197 34.8322 46.6792 34.8356 43.6783C34.8389 40.7966 33.1101 38.6197 30.3116 38.4502L29.9563 38.4395ZM29.6064 40.2027C33.8801 40.2027 33.9869 46.8964 29.9269 47.231L29.6064 47.244H24.7447V40.2027H29.6064ZM29.6064 42.5794L27.1204 42.5776V44.8671L29.6064 44.8673C30.7533 44.8673 30.817 42.8265 29.7976 42.5998L29.6064 42.5794Z" fill="#96CC1C"/>
<path d="M9.40473 19.7062C10.2251 19.7062 10.8902 20.3712 10.8902 21.1916C10.8902 21.9436 10.3313 22.5651 9.60629 22.6635L9.40473 22.677H1.48542C0.665046 22.677 0 22.012 0 21.1916C0 20.4396 0.558823 19.8181 1.28386 19.7197L1.48542 19.7062H9.40473Z" fill="#96CC1C"/>
<path d="M5.4449 15.746C6.19691 15.746 6.8184 16.3048 6.91676 17.0298L6.93032 17.2314V25.1507C6.93032 25.9711 6.26527 26.6361 5.4449 26.6361C4.69288 26.6361 4.07139 26.0773 3.97303 25.3523L3.95947 25.1507V17.2314C3.95947 16.411 4.62452 15.746 5.4449 15.746Z" fill="#96CC1C"/>
<path d="M74.5649 68.5248C75.1337 68.5248 75.5948 68.9859 75.5948 69.5547C75.5948 70.0603 75.2305 70.4808 74.75 70.568L74.5649 70.5846H66.6456C66.0768 70.5846 65.6157 70.1235 65.6157 69.5547C65.6157 69.0491 65.98 68.6286 66.4605 68.5414L66.6456 68.5248H74.5649Z" fill="#96CC1C"/>
<path d="M70.606 64.1102C71.358 64.1102 71.9795 64.669 72.0779 65.3941L72.0915 65.5957V73.515C72.0915 74.3353 71.4264 75.0004 70.606 75.0004C69.854 75.0004 69.2325 74.4416 69.1342 73.7165L69.1206 73.515V65.5957C69.1206 64.7753 69.7857 64.1102 70.606 64.1102Z" fill="#96CC1C"/>
<path d="M32.1813 3.95935C33.0017 3.95935 33.6668 4.6244 33.6668 5.44477C33.6668 6.19679 33.1079 6.81828 32.3829 6.91664L32.1813 6.9302H24.262C23.4417 6.9302 22.7766 6.26515 22.7766 5.44477C22.7766 4.69276 23.3354 4.07127 24.0605 3.97291L24.262 3.95935H32.1813Z" fill="#96CC1C"/>
<path d="M28.221 0C28.973 0 29.5945 0.558823 29.6929 1.28386L29.7064 1.48542V9.40473C29.7064 10.2251 29.0414 10.8902 28.221 10.8902C27.469 10.8902 26.8475 10.3313 26.7492 9.60629L26.7356 9.40473V1.48542C26.7356 0.665046 27.4006 0 28.221 0Z" fill="#96CC1C"/>
</svg>
