<svg width="64" height="40" viewBox="0 0 64 40" fill="none" xmlns="http://www.w3.org/2000/svg">
<path d="M7.32361 23.8165V29.5474H9.35718V23.8165H11.0289V22.0429H5.65206V23.8165H7.32361Z" fill="#006E90"/>
<path fill-rule="evenodd" clip-rule="evenodd" d="M12.0226 29.5474V22.0429H14.1479C14.9803 22.0429 15.5605 22.0814 15.8884 22.1582C16.2162 22.2352 16.4991 22.3642 16.737 22.5452C17.0054 22.7503 17.2118 23.0118 17.3563 23.3295C17.5007 23.6472 17.5729 23.9976 17.5729 24.3802C17.5729 24.9612 17.431 25.4338 17.1474 25.7975C16.8635 26.1616 16.4499 26.4032 15.9062 26.523L17.8723 29.4469L20.4115 22.0429H22.9598L25.5387 29.5474H23.5153L23.1382 28.2043H20.2484L19.861 29.5474H15.6412L13.9288 26.6102V29.5474H12.0226ZM13.9289 25.59H14.3059C14.7442 25.59 15.0643 25.5147 15.2666 25.3644C15.4688 25.2141 15.57 24.9784 15.57 24.657C15.57 24.2811 15.4757 24.0137 15.2871 23.8549C15.0986 23.6958 14.7817 23.6165 14.3366 23.6165H13.9289V25.59ZM22.7101 26.7434H20.6868L21.4359 24.2674C21.48 24.1136 21.5234 23.953 21.5659 23.7856C21.6083 23.6181 21.6515 23.4423 21.6958 23.2577C21.7604 23.521 21.813 23.7362 21.8538 23.9035C21.8947 24.0711 21.9269 24.1923 21.9507 24.2675L22.7101 26.7434Z" fill="#006E90"/>
<path d="M26.2523 29.5474V22.0429H28.2145L31.033 25.9027C31.0872 25.9815 31.1762 26.1393 31.3003 26.3769C31.4243 26.6144 31.5613 26.8972 31.7107 27.2252C31.67 26.9143 31.6402 26.6376 31.6216 26.3949C31.6028 26.1522 31.5935 25.9369 31.5935 25.7489V22.0428H33.5454V29.5473H31.5935L28.775 25.672C28.7171 25.5933 28.6264 25.4354 28.5024 25.1979C28.3782 24.9601 28.2432 24.681 28.0972 24.3597C28.138 24.6741 28.1675 24.9526 28.1864 25.1953C28.2049 25.438 28.2145 25.6534 28.2145 25.8412V29.5474H26.2523Z" fill="#006E90"/>
<path d="M36.3715 27.8967C36.0776 27.726 35.7795 27.468 35.4771 27.1228L34.5593 28.6453C34.9536 29.0246 35.3637 29.3032 35.7901 29.4809C36.2165 29.6584 36.6896 29.7474 37.2095 29.7474C38.0759 29.7474 38.7692 29.5056 39.289 29.0221C39.8087 28.5383 40.0687 27.8986 40.0687 27.1023C40.0687 26.7878 40.0228 26.5018 39.931 26.2437C39.8392 25.9857 39.705 25.7645 39.5284 25.5798C39.2667 25.31 38.7213 25.0621 37.8924 24.8366L37.8007 24.8109C37.4167 24.7084 37.1575 24.6008 37.0234 24.488C36.8892 24.3753 36.8222 24.225 36.8222 24.0371C36.8222 23.8525 36.8985 23.7014 37.0515 23.5833C37.2044 23.4656 37.4032 23.4065 37.6478 23.4065C37.8858 23.4065 38.1262 23.4571 38.3691 23.5579C38.612 23.6585 38.849 23.8082 39.0801 24.0063L39.7172 22.5351C39.3876 22.3095 39.0383 22.1412 38.67 22.0302C38.3012 21.9191 37.9114 21.8636 37.5003 21.8636C36.7391 21.8636 36.1199 22.0898 35.6427 22.5428C35.1652 22.9957 34.9266 23.5808 34.9266 24.2984C34.9266 24.852 35.0778 25.2878 35.3802 25.6055C35.6826 25.9232 36.1991 26.1813 36.9297 26.3795C37.4632 26.523 37.8053 26.6622 37.9567 26.7973C38.1077 26.9323 38.1833 27.1245 38.1833 27.374C38.1833 27.5995 38.0957 27.7858 37.9208 27.9327C37.7458 28.0795 37.5224 28.1531 37.2507 28.1531C36.9584 28.1531 36.6654 28.0676 36.3715 27.8967Z" fill="#006E90"/>
<path d="M41.2107 29.5474V22.0429H45.7823V23.6884H43.1932V24.9903H45.6344V26.6H43.1932V29.5474H41.2107Z" fill="#006E90"/>
<path d="M46.8883 22.0429V29.5474H51.4598V27.8659H48.8708V26.6H51.3121V24.9903H48.8708V23.6884H51.4598V22.0429H46.8883Z" fill="#006E90"/>
<path fill-rule="evenodd" clip-rule="evenodd" d="M52.8054 29.5474V22.0429H54.9307C55.7631 22.0429 56.3432 22.0814 56.6711 22.1582C56.999 22.2352 57.282 22.3642 57.5197 22.5452C57.7882 22.7503 57.9945 23.0118 58.1389 23.3295C58.2832 23.6472 58.3556 23.9976 58.3556 24.3802C58.3556 24.9612 58.2136 25.4338 57.93 25.7975C57.6462 26.1616 57.2326 26.4032 56.689 26.523L58.7226 29.5474H56.424L54.7114 26.6102V29.5474H52.8054ZM54.7114 25.59H55.0887C55.5271 25.59 55.8472 25.5147 56.0494 25.3644C56.2515 25.2141 56.3527 24.9784 56.3527 24.657C56.3527 24.2811 56.2585 24.0137 56.0699 23.8549C55.8812 23.6958 55.5645 23.6165 55.1193 23.6165H54.7114V25.59Z" fill="#006E90"/>
<path fill-rule="evenodd" clip-rule="evenodd" d="M18.0665 10.6763V20.6824H20.873C22.0054 20.6824 22.821 20.6437 23.3194 20.5661C23.8178 20.4886 24.2368 20.3588 24.5765 20.1765C24.9933 19.9534 25.3138 19.639 25.5381 19.2333C25.7623 18.828 25.8744 18.3585 25.8744 17.8254C25.8744 17.0828 25.6749 16.4893 25.2764 16.045C24.8778 15.6007 24.325 15.3513 23.6184 15.2966C24.2479 15.1235 24.7067 14.8695 24.9944 14.5346C25.282 14.1996 25.4259 13.7475 25.4259 13.1779C25.4259 12.7267 25.3297 12.3292 25.137 11.9852C24.9444 11.6411 24.6648 11.3666 24.2979 11.1616C23.9761 10.9838 23.5921 10.8586 23.146 10.7857C22.6998 10.7129 21.9149 10.6763 20.7914 10.6763H18.0665ZM21.1244 14.6746H20.5808V12.6584H21.1652C21.8402 12.6584 22.2943 12.7348 22.5277 12.8873C22.761 13.0401 22.8776 13.3055 22.8776 13.6835C22.8776 14.0481 22.7528 14.3045 22.5038 14.4525C22.2547 14.6007 21.7947 14.6746 21.1244 14.6746ZM21.5321 18.6386H20.5808L20.5807 16.4584H21.5728C22.2342 16.4584 22.6872 16.5417 22.9319 16.7079C23.1766 16.8742 23.2989 17.167 23.2989 17.5862C23.2989 17.9642 23.1654 18.2343 22.898 18.396C22.6306 18.5578 22.1753 18.6386 21.5321 18.6386Z" fill="#006E90"/>
<path fill-rule="evenodd" clip-rule="evenodd" d="M26.3365 20.6823L29.7682 10.6763H33.166L36.6044 20.6823H33.9067L33.4038 18.8916H29.551L29.0343 20.6823H26.3365ZM30.135 16.9437H32.833L31.8203 13.6425C31.7885 13.5425 31.7455 13.3806 31.6912 13.1574C31.6368 12.9342 31.5665 12.647 31.4804 12.2961C31.4215 12.5422 31.3638 12.7769 31.3072 13.0001C31.2504 13.2234 31.1926 13.4375 31.1339 13.6425L30.135 16.9437Z" fill="#006E90"/>
<path d="M37.5558 10.6763V20.6823H40.1722V15.7408C40.1722 15.4902 40.1595 15.203 40.1348 14.8796C40.1099 14.5562 40.0703 14.1848 40.0158 13.7655C40.2104 14.1938 40.3907 14.5662 40.5561 14.8829C40.7214 15.1998 40.8424 15.4105 40.9196 15.5152L44.6774 20.6823H47.28V10.6763H44.6774V15.6178C44.6774 15.8685 44.6899 16.1554 44.7148 16.4789C44.7396 16.8025 44.7793 17.1715 44.8338 17.5862C44.6342 17.1488 44.4519 16.7717 44.2867 16.455C44.121 16.1383 44.0022 15.9276 43.9299 15.8228L40.172 10.6763H37.5558Z" fill="#006E90"/>
<path d="M49.4137 20.6822V10.6763H52.0979V15.2213L55.2443 10.6763H58.4041L54.7277 15.5562L58.7235 20.6822H55.3394L52.0979 16.1918V20.6822H49.4137Z" fill="#006E90"/>
<path d="M4.87338 10.6508H15.8911V12.6337H4.87338V10.6508Z" fill="#006E90"/>
<path d="M15.8911 14.5001H4.87341V16.4831H15.8911V14.5001Z" fill="#006E90"/>
<path d="M4.87341 18.6992H15.8911V20.6823H4.87341V18.6992Z" fill="#006E90"/>
<path fill-rule="evenodd" clip-rule="evenodd" d="M3.76587 0H60.2341C62.3139 0 64 1.69579 64 3.78762V36.2124C64 38.3043 62.3141 40 60.2341 40H3.76587C1.68605 40 0 38.3043 0 36.2124V3.78762C0 1.69579 1.68605 0 3.76587 0ZM63.375 3.78762C63.375 2.04569 61.9659 0.62863 60.2341 0.62863H3.76587C2.03394 0.62863 0.62502 2.04582 0.62502 3.78762V36.2124C0.62502 37.9543 2.03406 39.3714 3.76587 39.3714H60.2341C61.9661 39.3714 63.375 37.9542 63.375 36.2124V3.78762Z" fill="#006E90"/>
</svg>
