<svg width="30" height="30" viewBox="0 0 30 30" fill="none" xmlns="http://www.w3.org/2000/svg">
<g clip-path="url(#clip0_700_625)">
<path d="M11.2503 25C11.5818 25 11.8998 25.1317 12.1342 25.3661C12.3686 25.6005 12.5003 25.9185 12.5003 26.25C12.5003 26.5815 12.3686 26.8995 12.1342 27.1339C11.8998 27.3683 11.5818 27.5 11.2503 27.5C10.9188 27.5 10.6009 27.3683 10.3664 27.1339C10.132 26.8995 10.0003 26.5815 10.0003 26.25C10.0003 25.9185 10.132 25.6005 10.3664 25.3661C10.6009 25.1317 10.9188 25 11.2503 25ZM20.0003 25C20.3318 25 20.6498 25.1317 20.8842 25.3661C21.1186 25.6005 21.2503 25.9185 21.2503 26.25C21.2503 26.5815 21.1186 26.8995 20.8842 27.1339C20.6498 27.3683 20.3318 27.5 20.0003 27.5C19.6688 27.5 19.3509 27.3683 19.1164 27.1339C18.882 26.8995 18.7503 26.5815 18.7503 26.25C18.7503 25.9185 18.882 25.6005 19.1164 25.3661C19.3509 25.1317 19.6688 25 20.0003 25ZM4.36907 3.28874L4.50032 3.37624L6.63532 4.97624C6.99864 5.24886 7.28083 5.61532 7.45157 6.03624L7.52657 6.24999H23.5841C23.923 6.24991 24.2583 6.31872 24.5698 6.45225C24.8812 6.58578 25.1623 6.78124 25.3959 7.02676C25.6295 7.27227 25.8107 7.56272 25.9286 7.88044C26.0465 8.19816 26.0985 8.53653 26.0816 8.87499L26.0653 9.05999L25.4941 13.6287C25.3226 15.0036 24.6992 16.2826 23.7217 17.2646C22.7442 18.2466 21.4682 18.876 20.0941 19.0537L19.8116 19.0825L10.6703 19.845L10.9953 21.25H21.8753C22.1939 21.2503 22.5004 21.3723 22.732 21.5911C22.9637 21.8098 23.1031 22.1087 23.1218 22.4267C23.1405 22.7448 23.037 23.058 22.8325 23.3023C22.628 23.5466 22.3379 23.7036 22.0216 23.7412L21.8753 23.75H10.9953C10.4648 23.7501 9.94805 23.5814 9.51975 23.2684C9.09145 22.9554 8.77382 22.5142 8.61282 22.0087L8.55907 21.8125L5.13407 6.97499L3.00032 5.37499C2.75644 5.1922 2.58774 4.92661 2.52596 4.62816C2.46417 4.32971 2.51355 4.01897 2.66482 3.75438C2.81608 3.48979 3.0588 3.28957 3.34733 3.19139C3.63585 3.09321 3.95031 3.10383 4.23157 3.22124L4.36907 3.28874ZM23.5841 8.74999H8.10907L10.1028 17.3825L19.6028 16.5912C20.4602 16.5199 21.267 16.1559 21.8879 15.5603C22.5088 14.9647 22.9059 14.1737 23.0128 13.32L23.5841 8.74999Z" fill="#034EA1"/>
</g>
<defs>
<clipPath id="clip0_700_625">
<rect width="30" height="30" fill="white"/>
</clipPath>
</defs>
</svg>
