<svg width="30" height="30" viewBox="0 0 30 30" fill="none" xmlns="http://www.w3.org/2000/svg">
<g clip-path="url(#clip0_700_616)">
<path fill-rule="evenodd" clip-rule="evenodd" d="M23.1176 4.75126C25.7363 6.27751 27.5788 9.37626 27.4976 12.9913C27.3963 17.5038 23.8851 21.4838 17.8988 25.0388C17.0113 25.5663 16.0763 26.25 15.0001 26.25C13.9438 26.25 12.9688 25.5538 12.1001 25.0375C6.11633 21.4838 2.60383 17.5025 2.50258 12.9913C2.42133 9.37626 4.26383 6.27876 6.88258 4.75126C9.33258 3.32501 12.4101 3.31626 15.0001 5.42251C17.5901 3.31626 20.6676 3.32376 23.1176 4.75126ZM21.8588 6.91251C20.1163 5.89751 17.9388 5.93376 16.0538 7.84126C15.9158 7.98027 15.7516 8.09059 15.5708 8.16587C15.3899 8.24116 15.196 8.27992 15.0001 8.27992C14.8042 8.27992 14.6102 8.24116 14.4294 8.16587C14.2485 8.09059 14.0844 7.98027 13.9463 7.84126C12.0613 5.93376 9.88383 5.89751 8.14133 6.91251C6.33633 7.96501 4.94133 10.1975 5.00258 12.9375C5.07258 16.0763 7.55258 19.43 13.3776 22.89C13.8876 23.1938 14.4201 23.5825 15.0001 23.7438C15.5801 23.5825 16.1126 23.1938 16.6226 22.89C22.4476 19.43 24.9276 16.0775 24.9976 12.9363C25.0601 10.1988 23.6638 7.96501 21.8588 6.91251Z" fill="#034EA1"/>
</g>
<defs>
<clipPath id="clip0_700_616">
<rect width="30" height="30" fill="white"/>
</clipPath>
</defs>
</svg>
