<svg width="30" height="30" viewBox="0 0 30 30" fill="none" xmlns="http://www.w3.org/2000/svg">
<g clip-path="url(#clip0_700_609)">
<path fill-rule="evenodd" clip-rule="evenodd" d="M7.49954 3.74999C8.36454 3.74972 9.20305 4.04849 9.87298 4.5957C10.5429 5.14291 11.0031 5.90489 11.1755 6.75254C11.3479 7.60019 11.222 8.48138 10.819 9.24681C10.4161 10.0122 9.76092 10.6148 8.96453 10.9525L8.74954 11.0375V20C8.74927 20.3064 8.86154 20.6022 9.06501 20.8312C9.26849 21.0603 9.54901 21.2066 9.85328 21.2425L9.99954 21.25H12.7583L12.2408 20.7325C12.0142 20.5081 11.882 20.2055 11.8712 19.8868C11.8604 19.5681 11.9718 19.2573 12.1826 19.018C12.3935 18.7787 12.6878 18.6291 13.0053 18.5997C13.3229 18.5704 13.6396 18.6635 13.8908 18.86L14.0083 18.965L16.6595 21.615C16.8749 21.8301 17.0045 22.1164 17.0238 22.4202C17.0431 22.7239 16.9509 23.0243 16.7645 23.265L16.6595 23.3837L14.0095 26.035C13.7851 26.2616 13.4826 26.3938 13.1639 26.4046C12.8451 26.4154 12.5343 26.304 12.2951 26.0932C12.0558 25.8823 11.9062 25.588 11.8768 25.2705C11.8474 24.9529 11.9405 24.6361 12.137 24.385L12.2408 24.2675L12.7583 23.75H9.99954C9.04302 23.75 8.12264 23.3846 7.42671 22.7284C6.73078 22.0722 6.3119 21.1749 6.25579 20.22L6.24953 20V11.0375C5.4156 10.7423 4.71282 10.1619 4.26533 9.39878C3.81785 8.63567 3.65445 7.73897 3.804 6.86706C3.95356 5.99516 4.40644 5.20416 5.08265 4.6338C5.75887 4.06343 6.6149 3.7504 7.49954 3.74999ZM15.9908 3.96499C16.2157 3.74081 16.5176 3.61065 16.835 3.60096C17.1525 3.59126 17.4617 3.70276 17.6999 3.9128C17.9381 4.12284 18.0874 4.41568 18.1175 4.73183C18.1477 5.04799 18.0563 5.36375 17.862 5.61499L17.7583 5.73249L17.2408 6.24999H19.9995C20.956 6.24994 21.8764 6.6154 22.5724 7.2716C23.2683 7.92779 23.6872 8.82512 23.7433 9.77999L23.7495 9.99999V18.9625C24.5835 19.2577 25.2863 19.8381 25.7337 20.6012C26.1812 21.3643 26.3446 22.261 26.1951 23.1329C26.0455 24.0048 25.5926 24.7958 24.9164 25.3662C24.2402 25.9366 23.3842 26.2496 22.4995 26.25C21.6345 26.2503 20.796 25.9515 20.1261 25.4043C19.4562 24.8571 18.996 24.0951 18.8236 23.2474C18.6512 22.3998 18.7771 21.5186 19.18 20.7532C19.583 19.9877 20.2381 19.3851 21.0345 19.0475L21.2495 18.9625V9.99999C21.2495 9.69382 21.1371 9.39832 20.9336 9.16953C20.7302 8.94073 20.4499 8.79456 20.1458 8.75874L19.9995 8.74999H17.2408L17.7583 9.26749C17.9849 9.49192 18.1171 9.79445 18.1279 10.1132C18.1387 10.4319 18.0273 10.7427 17.8165 10.982C17.6056 11.2212 17.3113 11.3709 16.9938 11.4002C16.6762 11.4296 16.3594 11.3365 16.1083 11.14L15.9908 11.035L13.3395 8.38499C13.1238 8.16984 12.9941 7.8833 12.9747 7.57922C12.9554 7.27515 13.0478 6.97449 13.2345 6.73374L13.3395 6.61624L15.9908 3.96499ZM22.4995 21.25C22.168 21.25 21.8501 21.3817 21.6157 21.6161C21.3812 21.8505 21.2495 22.1685 21.2495 22.5C21.2495 22.8315 21.3812 23.1495 21.6157 23.3839C21.8501 23.6183 22.168 23.75 22.4995 23.75C22.8311 23.75 23.149 23.6183 23.3834 23.3839C23.6178 23.1495 23.7495 22.8315 23.7495 22.5C23.7495 22.1685 23.6178 21.8505 23.3834 21.6161C23.149 21.3817 22.8311 21.25 22.4995 21.25ZM7.49954 6.24999C7.16801 6.24999 6.85007 6.38169 6.61565 6.61611C6.38123 6.85053 6.24953 7.16847 6.24953 7.49999C6.24953 7.83151 6.38123 8.14945 6.61565 8.38387C6.85007 8.61829 7.16801 8.74999 7.49954 8.74999C7.83106 8.74999 8.149 8.61829 8.38342 8.38387C8.61784 8.14945 8.74954 7.83151 8.74954 7.49999C8.74954 7.16847 8.61784 6.85053 8.38342 6.61611C8.149 6.38169 7.83106 6.24999 7.49954 6.24999Z" fill="#034EA1"/>
</g>
<defs>
<clipPath id="clip0_700_609">
<rect width="30" height="30" fill="white"/>
</clipPath>
</defs>
</svg>
