<svg width="30" height="30" viewBox="0 0 30 30" fill="none" xmlns="http://www.w3.org/2000/svg">
<g clip-path="url(#clip0_700_594)">
<path fill-rule="evenodd" clip-rule="evenodd" d="M15 2.5C21.9037 2.5 27.5 8.09625 27.5 15C27.5 21.9037 21.9037 27.5 15 27.5C8.09625 27.5 2.5 21.9037 2.5 15C2.5 8.09625 8.09625 2.5 15 2.5ZM15 5C12.3478 5 9.8043 6.05357 7.92893 7.92893C6.05357 9.8043 5 12.3478 5 15C5 17.6522 6.05357 20.1957 7.92893 22.0711C9.8043 23.9464 12.3478 25 15 25C17.6522 25 20.1957 23.9464 22.0711 22.0711C23.9464 20.1957 25 17.6522 25 15C25 12.3478 23.9464 9.8043 22.0711 7.92893C20.1957 6.05357 17.6522 5 15 5ZM15 7.5C15.3315 7.5 15.6495 7.6317 15.8839 7.86612C16.1183 8.10054 16.25 8.41848 16.25 8.75V10H18.125C18.7053 10 19.2742 10.1616 19.7679 10.4667C20.2616 10.7718 20.6605 11.2084 20.9201 11.7275C21.1796 12.2465 21.2895 12.8276 21.2374 13.4056C21.1853 13.9836 20.9732 14.5357 20.625 15C20.9732 15.4643 21.1853 16.0164 21.2374 16.5944C21.2895 17.1724 21.1796 17.7535 20.9201 18.2725C20.6605 18.7916 20.2616 19.2282 19.7679 19.5333C19.2742 19.8384 18.7053 20 18.125 20H16.25V21.25C16.25 21.5815 16.1183 21.8995 15.8839 22.1339C15.6495 22.3683 15.3315 22.5 15 22.5C14.6685 22.5 14.3505 22.3683 14.1161 22.1339C13.8817 21.8995 13.75 21.5815 13.75 21.25V20H11.375C11.0103 20 10.6606 19.8551 10.4027 19.5973C10.1449 19.3394 10 18.9897 10 18.625V11.375C10 11.0103 10.1449 10.6606 10.4027 10.4027C10.6606 10.1449 11.0103 10 11.375 10H13.75V8.75C13.75 8.41848 13.8817 8.10054 14.1161 7.86612C14.3505 7.6317 14.6685 7.5 15 7.5ZM18.125 16.25H12.5V17.5H18.125C18.2908 17.5 18.4497 17.4342 18.5669 17.3169C18.6842 17.1997 18.75 17.0408 18.75 16.875C18.75 16.7092 18.6842 16.5503 18.5669 16.4331C18.4497 16.3158 18.2908 16.25 18.125 16.25ZM18.125 12.5H12.5V13.75H18.125C18.2908 13.75 18.4497 13.6842 18.5669 13.5669C18.6842 13.4497 18.75 13.2908 18.75 13.125C18.75 12.9592 18.6842 12.8003 18.5669 12.6831C18.4497 12.5658 18.2908 12.5 18.125 12.5Z" fill="#034EA1"/>
</g>
<defs>
<clipPath id="clip0_700_594">
<rect width="30" height="30" fill="white"/>
</clipPath>
</defs>
</svg>
